G04 #@! TF.GenerationSoftware,KiCad,Pcbnew,5.1.5+dfsg1-2*
G04 #@! TF.CreationDate,2020-03-08T13:50:39+09:00*
G04 #@! TF.ProjectId,dbmbyhd,64626d62-7968-4642-9e6b-696361645f70,rev?*
G04 #@! TF.SameCoordinates,Original*
G04 #@! TF.FileFunction,Paste,Top*
G04 #@! TF.FilePolarity,Positive*
%FSLAX46Y46*%
G04 Gerber Fmt 4.6, Leading zero omitted, Abs format (unit mm)*
G04 Created by KiCad (PCBNEW 5.1.5+dfsg1-2) date 2020-03-08 13:50:39*
%MOMM*%
%LPD*%
G04 APERTURE LIST*
%ADD10C,0.020000*%
G04 APERTURE END LIST*
D10*
G36*
X146384626Y-100487301D02*
G01*
X146390693Y-100488201D01*
X146396643Y-100489691D01*
X146402418Y-100491758D01*
X146407962Y-100494380D01*
X146413223Y-100497533D01*
X146418150Y-100501187D01*
X146422694Y-100505306D01*
X146426813Y-100509850D01*
X146430467Y-100514777D01*
X146433620Y-100520038D01*
X146436242Y-100525582D01*
X146438309Y-100531357D01*
X146439799Y-100537307D01*
X146440699Y-100543374D01*
X146441000Y-100549500D01*
X146441000Y-101299500D01*
X146440699Y-101305626D01*
X146439799Y-101311693D01*
X146438309Y-101317643D01*
X146436242Y-101323418D01*
X146433620Y-101328962D01*
X146430467Y-101334223D01*
X146426813Y-101339150D01*
X146422694Y-101343694D01*
X146418150Y-101347813D01*
X146413223Y-101351467D01*
X146407962Y-101354620D01*
X146402418Y-101357242D01*
X146396643Y-101359309D01*
X146390693Y-101360799D01*
X146384626Y-101361699D01*
X146378500Y-101362000D01*
X146253500Y-101362000D01*
X146247374Y-101361699D01*
X146241307Y-101360799D01*
X146235357Y-101359309D01*
X146229582Y-101357242D01*
X146224038Y-101354620D01*
X146218777Y-101351467D01*
X146213850Y-101347813D01*
X146209306Y-101343694D01*
X146205187Y-101339150D01*
X146201533Y-101334223D01*
X146198380Y-101328962D01*
X146195758Y-101323418D01*
X146193691Y-101317643D01*
X146192201Y-101311693D01*
X146191301Y-101305626D01*
X146191000Y-101299500D01*
X146191000Y-100549500D01*
X146191301Y-100543374D01*
X146192201Y-100537307D01*
X146193691Y-100531357D01*
X146195758Y-100525582D01*
X146198380Y-100520038D01*
X146201533Y-100514777D01*
X146205187Y-100509850D01*
X146209306Y-100505306D01*
X146213850Y-100501187D01*
X146218777Y-100497533D01*
X146224038Y-100494380D01*
X146229582Y-100491758D01*
X146235357Y-100489691D01*
X146241307Y-100488201D01*
X146247374Y-100487301D01*
X146253500Y-100487000D01*
X146378500Y-100487000D01*
X146384626Y-100487301D01*
G37*
G36*
X146884626Y-100487301D02*
G01*
X146890693Y-100488201D01*
X146896643Y-100489691D01*
X146902418Y-100491758D01*
X146907962Y-100494380D01*
X146913223Y-100497533D01*
X146918150Y-100501187D01*
X146922694Y-100505306D01*
X146926813Y-100509850D01*
X146930467Y-100514777D01*
X146933620Y-100520038D01*
X146936242Y-100525582D01*
X146938309Y-100531357D01*
X146939799Y-100537307D01*
X146940699Y-100543374D01*
X146941000Y-100549500D01*
X146941000Y-101299500D01*
X146940699Y-101305626D01*
X146939799Y-101311693D01*
X146938309Y-101317643D01*
X146936242Y-101323418D01*
X146933620Y-101328962D01*
X146930467Y-101334223D01*
X146926813Y-101339150D01*
X146922694Y-101343694D01*
X146918150Y-101347813D01*
X146913223Y-101351467D01*
X146907962Y-101354620D01*
X146902418Y-101357242D01*
X146896643Y-101359309D01*
X146890693Y-101360799D01*
X146884626Y-101361699D01*
X146878500Y-101362000D01*
X146753500Y-101362000D01*
X146747374Y-101361699D01*
X146741307Y-101360799D01*
X146735357Y-101359309D01*
X146729582Y-101357242D01*
X146724038Y-101354620D01*
X146718777Y-101351467D01*
X146713850Y-101347813D01*
X146709306Y-101343694D01*
X146705187Y-101339150D01*
X146701533Y-101334223D01*
X146698380Y-101328962D01*
X146695758Y-101323418D01*
X146693691Y-101317643D01*
X146692201Y-101311693D01*
X146691301Y-101305626D01*
X146691000Y-101299500D01*
X146691000Y-100549500D01*
X146691301Y-100543374D01*
X146692201Y-100537307D01*
X146693691Y-100531357D01*
X146695758Y-100525582D01*
X146698380Y-100520038D01*
X146701533Y-100514777D01*
X146705187Y-100509850D01*
X146709306Y-100505306D01*
X146713850Y-100501187D01*
X146718777Y-100497533D01*
X146724038Y-100494380D01*
X146729582Y-100491758D01*
X146735357Y-100489691D01*
X146741307Y-100488201D01*
X146747374Y-100487301D01*
X146753500Y-100487000D01*
X146878500Y-100487000D01*
X146884626Y-100487301D01*
G37*
G36*
X147384626Y-100487301D02*
G01*
X147390693Y-100488201D01*
X147396643Y-100489691D01*
X147402418Y-100491758D01*
X147407962Y-100494380D01*
X147413223Y-100497533D01*
X147418150Y-100501187D01*
X147422694Y-100505306D01*
X147426813Y-100509850D01*
X147430467Y-100514777D01*
X147433620Y-100520038D01*
X147436242Y-100525582D01*
X147438309Y-100531357D01*
X147439799Y-100537307D01*
X147440699Y-100543374D01*
X147441000Y-100549500D01*
X147441000Y-101299500D01*
X147440699Y-101305626D01*
X147439799Y-101311693D01*
X147438309Y-101317643D01*
X147436242Y-101323418D01*
X147433620Y-101328962D01*
X147430467Y-101334223D01*
X147426813Y-101339150D01*
X147422694Y-101343694D01*
X147418150Y-101347813D01*
X147413223Y-101351467D01*
X147407962Y-101354620D01*
X147402418Y-101357242D01*
X147396643Y-101359309D01*
X147390693Y-101360799D01*
X147384626Y-101361699D01*
X147378500Y-101362000D01*
X147253500Y-101362000D01*
X147247374Y-101361699D01*
X147241307Y-101360799D01*
X147235357Y-101359309D01*
X147229582Y-101357242D01*
X147224038Y-101354620D01*
X147218777Y-101351467D01*
X147213850Y-101347813D01*
X147209306Y-101343694D01*
X147205187Y-101339150D01*
X147201533Y-101334223D01*
X147198380Y-101328962D01*
X147195758Y-101323418D01*
X147193691Y-101317643D01*
X147192201Y-101311693D01*
X147191301Y-101305626D01*
X147191000Y-101299500D01*
X147191000Y-100549500D01*
X147191301Y-100543374D01*
X147192201Y-100537307D01*
X147193691Y-100531357D01*
X147195758Y-100525582D01*
X147198380Y-100520038D01*
X147201533Y-100514777D01*
X147205187Y-100509850D01*
X147209306Y-100505306D01*
X147213850Y-100501187D01*
X147218777Y-100497533D01*
X147224038Y-100494380D01*
X147229582Y-100491758D01*
X147235357Y-100489691D01*
X147241307Y-100488201D01*
X147247374Y-100487301D01*
X147253500Y-100487000D01*
X147378500Y-100487000D01*
X147384626Y-100487301D01*
G37*
G36*
X147884626Y-100487301D02*
G01*
X147890693Y-100488201D01*
X147896643Y-100489691D01*
X147902418Y-100491758D01*
X147907962Y-100494380D01*
X147913223Y-100497533D01*
X147918150Y-100501187D01*
X147922694Y-100505306D01*
X147926813Y-100509850D01*
X147930467Y-100514777D01*
X147933620Y-100520038D01*
X147936242Y-100525582D01*
X147938309Y-100531357D01*
X147939799Y-100537307D01*
X147940699Y-100543374D01*
X147941000Y-100549500D01*
X147941000Y-101299500D01*
X147940699Y-101305626D01*
X147939799Y-101311693D01*
X147938309Y-101317643D01*
X147936242Y-101323418D01*
X147933620Y-101328962D01*
X147930467Y-101334223D01*
X147926813Y-101339150D01*
X147922694Y-101343694D01*
X147918150Y-101347813D01*
X147913223Y-101351467D01*
X147907962Y-101354620D01*
X147902418Y-101357242D01*
X147896643Y-101359309D01*
X147890693Y-101360799D01*
X147884626Y-101361699D01*
X147878500Y-101362000D01*
X147753500Y-101362000D01*
X147747374Y-101361699D01*
X147741307Y-101360799D01*
X147735357Y-101359309D01*
X147729582Y-101357242D01*
X147724038Y-101354620D01*
X147718777Y-101351467D01*
X147713850Y-101347813D01*
X147709306Y-101343694D01*
X147705187Y-101339150D01*
X147701533Y-101334223D01*
X147698380Y-101328962D01*
X147695758Y-101323418D01*
X147693691Y-101317643D01*
X147692201Y-101311693D01*
X147691301Y-101305626D01*
X147691000Y-101299500D01*
X147691000Y-100549500D01*
X147691301Y-100543374D01*
X147692201Y-100537307D01*
X147693691Y-100531357D01*
X147695758Y-100525582D01*
X147698380Y-100520038D01*
X147701533Y-100514777D01*
X147705187Y-100509850D01*
X147709306Y-100505306D01*
X147713850Y-100501187D01*
X147718777Y-100497533D01*
X147724038Y-100494380D01*
X147729582Y-100491758D01*
X147735357Y-100489691D01*
X147741307Y-100488201D01*
X147747374Y-100487301D01*
X147753500Y-100487000D01*
X147878500Y-100487000D01*
X147884626Y-100487301D01*
G37*
G36*
X148884626Y-101487301D02*
G01*
X148890693Y-101488201D01*
X148896643Y-101489691D01*
X148902418Y-101491758D01*
X148907962Y-101494380D01*
X148913223Y-101497533D01*
X148918150Y-101501187D01*
X148922694Y-101505306D01*
X148926813Y-101509850D01*
X148930467Y-101514777D01*
X148933620Y-101520038D01*
X148936242Y-101525582D01*
X148938309Y-101531357D01*
X148939799Y-101537307D01*
X148940699Y-101543374D01*
X148941000Y-101549500D01*
X148941000Y-101674500D01*
X148940699Y-101680626D01*
X148939799Y-101686693D01*
X148938309Y-101692643D01*
X148936242Y-101698418D01*
X148933620Y-101703962D01*
X148930467Y-101709223D01*
X148926813Y-101714150D01*
X148922694Y-101718694D01*
X148918150Y-101722813D01*
X148913223Y-101726467D01*
X148907962Y-101729620D01*
X148902418Y-101732242D01*
X148896643Y-101734309D01*
X148890693Y-101735799D01*
X148884626Y-101736699D01*
X148878500Y-101737000D01*
X148128500Y-101737000D01*
X148122374Y-101736699D01*
X148116307Y-101735799D01*
X148110357Y-101734309D01*
X148104582Y-101732242D01*
X148099038Y-101729620D01*
X148093777Y-101726467D01*
X148088850Y-101722813D01*
X148084306Y-101718694D01*
X148080187Y-101714150D01*
X148076533Y-101709223D01*
X148073380Y-101703962D01*
X148070758Y-101698418D01*
X148068691Y-101692643D01*
X148067201Y-101686693D01*
X148066301Y-101680626D01*
X148066000Y-101674500D01*
X148066000Y-101549500D01*
X148066301Y-101543374D01*
X148067201Y-101537307D01*
X148068691Y-101531357D01*
X148070758Y-101525582D01*
X148073380Y-101520038D01*
X148076533Y-101514777D01*
X148080187Y-101509850D01*
X148084306Y-101505306D01*
X148088850Y-101501187D01*
X148093777Y-101497533D01*
X148099038Y-101494380D01*
X148104582Y-101491758D01*
X148110357Y-101489691D01*
X148116307Y-101488201D01*
X148122374Y-101487301D01*
X148128500Y-101487000D01*
X148878500Y-101487000D01*
X148884626Y-101487301D01*
G37*
G36*
X148884626Y-101987301D02*
G01*
X148890693Y-101988201D01*
X148896643Y-101989691D01*
X148902418Y-101991758D01*
X148907962Y-101994380D01*
X148913223Y-101997533D01*
X148918150Y-102001187D01*
X148922694Y-102005306D01*
X148926813Y-102009850D01*
X148930467Y-102014777D01*
X148933620Y-102020038D01*
X148936242Y-102025582D01*
X148938309Y-102031357D01*
X148939799Y-102037307D01*
X148940699Y-102043374D01*
X148941000Y-102049500D01*
X148941000Y-102174500D01*
X148940699Y-102180626D01*
X148939799Y-102186693D01*
X148938309Y-102192643D01*
X148936242Y-102198418D01*
X148933620Y-102203962D01*
X148930467Y-102209223D01*
X148926813Y-102214150D01*
X148922694Y-102218694D01*
X148918150Y-102222813D01*
X148913223Y-102226467D01*
X148907962Y-102229620D01*
X148902418Y-102232242D01*
X148896643Y-102234309D01*
X148890693Y-102235799D01*
X148884626Y-102236699D01*
X148878500Y-102237000D01*
X148128500Y-102237000D01*
X148122374Y-102236699D01*
X148116307Y-102235799D01*
X148110357Y-102234309D01*
X148104582Y-102232242D01*
X148099038Y-102229620D01*
X148093777Y-102226467D01*
X148088850Y-102222813D01*
X148084306Y-102218694D01*
X148080187Y-102214150D01*
X148076533Y-102209223D01*
X148073380Y-102203962D01*
X148070758Y-102198418D01*
X148068691Y-102192643D01*
X148067201Y-102186693D01*
X148066301Y-102180626D01*
X148066000Y-102174500D01*
X148066000Y-102049500D01*
X148066301Y-102043374D01*
X148067201Y-102037307D01*
X148068691Y-102031357D01*
X148070758Y-102025582D01*
X148073380Y-102020038D01*
X148076533Y-102014777D01*
X148080187Y-102009850D01*
X148084306Y-102005306D01*
X148088850Y-102001187D01*
X148093777Y-101997533D01*
X148099038Y-101994380D01*
X148104582Y-101991758D01*
X148110357Y-101989691D01*
X148116307Y-101988201D01*
X148122374Y-101987301D01*
X148128500Y-101987000D01*
X148878500Y-101987000D01*
X148884626Y-101987301D01*
G37*
G36*
X148884626Y-102487301D02*
G01*
X148890693Y-102488201D01*
X148896643Y-102489691D01*
X148902418Y-102491758D01*
X148907962Y-102494380D01*
X148913223Y-102497533D01*
X148918150Y-102501187D01*
X148922694Y-102505306D01*
X148926813Y-102509850D01*
X148930467Y-102514777D01*
X148933620Y-102520038D01*
X148936242Y-102525582D01*
X148938309Y-102531357D01*
X148939799Y-102537307D01*
X148940699Y-102543374D01*
X148941000Y-102549500D01*
X148941000Y-102674500D01*
X148940699Y-102680626D01*
X148939799Y-102686693D01*
X148938309Y-102692643D01*
X148936242Y-102698418D01*
X148933620Y-102703962D01*
X148930467Y-102709223D01*
X148926813Y-102714150D01*
X148922694Y-102718694D01*
X148918150Y-102722813D01*
X148913223Y-102726467D01*
X148907962Y-102729620D01*
X148902418Y-102732242D01*
X148896643Y-102734309D01*
X148890693Y-102735799D01*
X148884626Y-102736699D01*
X148878500Y-102737000D01*
X148128500Y-102737000D01*
X148122374Y-102736699D01*
X148116307Y-102735799D01*
X148110357Y-102734309D01*
X148104582Y-102732242D01*
X148099038Y-102729620D01*
X148093777Y-102726467D01*
X148088850Y-102722813D01*
X148084306Y-102718694D01*
X148080187Y-102714150D01*
X148076533Y-102709223D01*
X148073380Y-102703962D01*
X148070758Y-102698418D01*
X148068691Y-102692643D01*
X148067201Y-102686693D01*
X148066301Y-102680626D01*
X148066000Y-102674500D01*
X148066000Y-102549500D01*
X148066301Y-102543374D01*
X148067201Y-102537307D01*
X148068691Y-102531357D01*
X148070758Y-102525582D01*
X148073380Y-102520038D01*
X148076533Y-102514777D01*
X148080187Y-102509850D01*
X148084306Y-102505306D01*
X148088850Y-102501187D01*
X148093777Y-102497533D01*
X148099038Y-102494380D01*
X148104582Y-102491758D01*
X148110357Y-102489691D01*
X148116307Y-102488201D01*
X148122374Y-102487301D01*
X148128500Y-102487000D01*
X148878500Y-102487000D01*
X148884626Y-102487301D01*
G37*
G36*
X148884626Y-102987301D02*
G01*
X148890693Y-102988201D01*
X148896643Y-102989691D01*
X148902418Y-102991758D01*
X148907962Y-102994380D01*
X148913223Y-102997533D01*
X148918150Y-103001187D01*
X148922694Y-103005306D01*
X148926813Y-103009850D01*
X148930467Y-103014777D01*
X148933620Y-103020038D01*
X148936242Y-103025582D01*
X148938309Y-103031357D01*
X148939799Y-103037307D01*
X148940699Y-103043374D01*
X148941000Y-103049500D01*
X148941000Y-103174500D01*
X148940699Y-103180626D01*
X148939799Y-103186693D01*
X148938309Y-103192643D01*
X148936242Y-103198418D01*
X148933620Y-103203962D01*
X148930467Y-103209223D01*
X148926813Y-103214150D01*
X148922694Y-103218694D01*
X148918150Y-103222813D01*
X148913223Y-103226467D01*
X148907962Y-103229620D01*
X148902418Y-103232242D01*
X148896643Y-103234309D01*
X148890693Y-103235799D01*
X148884626Y-103236699D01*
X148878500Y-103237000D01*
X148128500Y-103237000D01*
X148122374Y-103236699D01*
X148116307Y-103235799D01*
X148110357Y-103234309D01*
X148104582Y-103232242D01*
X148099038Y-103229620D01*
X148093777Y-103226467D01*
X148088850Y-103222813D01*
X148084306Y-103218694D01*
X148080187Y-103214150D01*
X148076533Y-103209223D01*
X148073380Y-103203962D01*
X148070758Y-103198418D01*
X148068691Y-103192643D01*
X148067201Y-103186693D01*
X148066301Y-103180626D01*
X148066000Y-103174500D01*
X148066000Y-103049500D01*
X148066301Y-103043374D01*
X148067201Y-103037307D01*
X148068691Y-103031357D01*
X148070758Y-103025582D01*
X148073380Y-103020038D01*
X148076533Y-103014777D01*
X148080187Y-103009850D01*
X148084306Y-103005306D01*
X148088850Y-103001187D01*
X148093777Y-102997533D01*
X148099038Y-102994380D01*
X148104582Y-102991758D01*
X148110357Y-102989691D01*
X148116307Y-102988201D01*
X148122374Y-102987301D01*
X148128500Y-102987000D01*
X148878500Y-102987000D01*
X148884626Y-102987301D01*
G37*
G36*
X147884626Y-103362301D02*
G01*
X147890693Y-103363201D01*
X147896643Y-103364691D01*
X147902418Y-103366758D01*
X147907962Y-103369380D01*
X147913223Y-103372533D01*
X147918150Y-103376187D01*
X147922694Y-103380306D01*
X147926813Y-103384850D01*
X147930467Y-103389777D01*
X147933620Y-103395038D01*
X147936242Y-103400582D01*
X147938309Y-103406357D01*
X147939799Y-103412307D01*
X147940699Y-103418374D01*
X147941000Y-103424500D01*
X147941000Y-104174500D01*
X147940699Y-104180626D01*
X147939799Y-104186693D01*
X147938309Y-104192643D01*
X147936242Y-104198418D01*
X147933620Y-104203962D01*
X147930467Y-104209223D01*
X147926813Y-104214150D01*
X147922694Y-104218694D01*
X147918150Y-104222813D01*
X147913223Y-104226467D01*
X147907962Y-104229620D01*
X147902418Y-104232242D01*
X147896643Y-104234309D01*
X147890693Y-104235799D01*
X147884626Y-104236699D01*
X147878500Y-104237000D01*
X147753500Y-104237000D01*
X147747374Y-104236699D01*
X147741307Y-104235799D01*
X147735357Y-104234309D01*
X147729582Y-104232242D01*
X147724038Y-104229620D01*
X147718777Y-104226467D01*
X147713850Y-104222813D01*
X147709306Y-104218694D01*
X147705187Y-104214150D01*
X147701533Y-104209223D01*
X147698380Y-104203962D01*
X147695758Y-104198418D01*
X147693691Y-104192643D01*
X147692201Y-104186693D01*
X147691301Y-104180626D01*
X147691000Y-104174500D01*
X147691000Y-103424500D01*
X147691301Y-103418374D01*
X147692201Y-103412307D01*
X147693691Y-103406357D01*
X147695758Y-103400582D01*
X147698380Y-103395038D01*
X147701533Y-103389777D01*
X147705187Y-103384850D01*
X147709306Y-103380306D01*
X147713850Y-103376187D01*
X147718777Y-103372533D01*
X147724038Y-103369380D01*
X147729582Y-103366758D01*
X147735357Y-103364691D01*
X147741307Y-103363201D01*
X147747374Y-103362301D01*
X147753500Y-103362000D01*
X147878500Y-103362000D01*
X147884626Y-103362301D01*
G37*
G36*
X147384626Y-103362301D02*
G01*
X147390693Y-103363201D01*
X147396643Y-103364691D01*
X147402418Y-103366758D01*
X147407962Y-103369380D01*
X147413223Y-103372533D01*
X147418150Y-103376187D01*
X147422694Y-103380306D01*
X147426813Y-103384850D01*
X147430467Y-103389777D01*
X147433620Y-103395038D01*
X147436242Y-103400582D01*
X147438309Y-103406357D01*
X147439799Y-103412307D01*
X147440699Y-103418374D01*
X147441000Y-103424500D01*
X147441000Y-104174500D01*
X147440699Y-104180626D01*
X147439799Y-104186693D01*
X147438309Y-104192643D01*
X147436242Y-104198418D01*
X147433620Y-104203962D01*
X147430467Y-104209223D01*
X147426813Y-104214150D01*
X147422694Y-104218694D01*
X147418150Y-104222813D01*
X147413223Y-104226467D01*
X147407962Y-104229620D01*
X147402418Y-104232242D01*
X147396643Y-104234309D01*
X147390693Y-104235799D01*
X147384626Y-104236699D01*
X147378500Y-104237000D01*
X147253500Y-104237000D01*
X147247374Y-104236699D01*
X147241307Y-104235799D01*
X147235357Y-104234309D01*
X147229582Y-104232242D01*
X147224038Y-104229620D01*
X147218777Y-104226467D01*
X147213850Y-104222813D01*
X147209306Y-104218694D01*
X147205187Y-104214150D01*
X147201533Y-104209223D01*
X147198380Y-104203962D01*
X147195758Y-104198418D01*
X147193691Y-104192643D01*
X147192201Y-104186693D01*
X147191301Y-104180626D01*
X147191000Y-104174500D01*
X147191000Y-103424500D01*
X147191301Y-103418374D01*
X147192201Y-103412307D01*
X147193691Y-103406357D01*
X147195758Y-103400582D01*
X147198380Y-103395038D01*
X147201533Y-103389777D01*
X147205187Y-103384850D01*
X147209306Y-103380306D01*
X147213850Y-103376187D01*
X147218777Y-103372533D01*
X147224038Y-103369380D01*
X147229582Y-103366758D01*
X147235357Y-103364691D01*
X147241307Y-103363201D01*
X147247374Y-103362301D01*
X147253500Y-103362000D01*
X147378500Y-103362000D01*
X147384626Y-103362301D01*
G37*
G36*
X146884626Y-103362301D02*
G01*
X146890693Y-103363201D01*
X146896643Y-103364691D01*
X146902418Y-103366758D01*
X146907962Y-103369380D01*
X146913223Y-103372533D01*
X146918150Y-103376187D01*
X146922694Y-103380306D01*
X146926813Y-103384850D01*
X146930467Y-103389777D01*
X146933620Y-103395038D01*
X146936242Y-103400582D01*
X146938309Y-103406357D01*
X146939799Y-103412307D01*
X146940699Y-103418374D01*
X146941000Y-103424500D01*
X146941000Y-104174500D01*
X146940699Y-104180626D01*
X146939799Y-104186693D01*
X146938309Y-104192643D01*
X146936242Y-104198418D01*
X146933620Y-104203962D01*
X146930467Y-104209223D01*
X146926813Y-104214150D01*
X146922694Y-104218694D01*
X146918150Y-104222813D01*
X146913223Y-104226467D01*
X146907962Y-104229620D01*
X146902418Y-104232242D01*
X146896643Y-104234309D01*
X146890693Y-104235799D01*
X146884626Y-104236699D01*
X146878500Y-104237000D01*
X146753500Y-104237000D01*
X146747374Y-104236699D01*
X146741307Y-104235799D01*
X146735357Y-104234309D01*
X146729582Y-104232242D01*
X146724038Y-104229620D01*
X146718777Y-104226467D01*
X146713850Y-104222813D01*
X146709306Y-104218694D01*
X146705187Y-104214150D01*
X146701533Y-104209223D01*
X146698380Y-104203962D01*
X146695758Y-104198418D01*
X146693691Y-104192643D01*
X146692201Y-104186693D01*
X146691301Y-104180626D01*
X146691000Y-104174500D01*
X146691000Y-103424500D01*
X146691301Y-103418374D01*
X146692201Y-103412307D01*
X146693691Y-103406357D01*
X146695758Y-103400582D01*
X146698380Y-103395038D01*
X146701533Y-103389777D01*
X146705187Y-103384850D01*
X146709306Y-103380306D01*
X146713850Y-103376187D01*
X146718777Y-103372533D01*
X146724038Y-103369380D01*
X146729582Y-103366758D01*
X146735357Y-103364691D01*
X146741307Y-103363201D01*
X146747374Y-103362301D01*
X146753500Y-103362000D01*
X146878500Y-103362000D01*
X146884626Y-103362301D01*
G37*
G36*
X146384626Y-103362301D02*
G01*
X146390693Y-103363201D01*
X146396643Y-103364691D01*
X146402418Y-103366758D01*
X146407962Y-103369380D01*
X146413223Y-103372533D01*
X146418150Y-103376187D01*
X146422694Y-103380306D01*
X146426813Y-103384850D01*
X146430467Y-103389777D01*
X146433620Y-103395038D01*
X146436242Y-103400582D01*
X146438309Y-103406357D01*
X146439799Y-103412307D01*
X146440699Y-103418374D01*
X146441000Y-103424500D01*
X146441000Y-104174500D01*
X146440699Y-104180626D01*
X146439799Y-104186693D01*
X146438309Y-104192643D01*
X146436242Y-104198418D01*
X146433620Y-104203962D01*
X146430467Y-104209223D01*
X146426813Y-104214150D01*
X146422694Y-104218694D01*
X146418150Y-104222813D01*
X146413223Y-104226467D01*
X146407962Y-104229620D01*
X146402418Y-104232242D01*
X146396643Y-104234309D01*
X146390693Y-104235799D01*
X146384626Y-104236699D01*
X146378500Y-104237000D01*
X146253500Y-104237000D01*
X146247374Y-104236699D01*
X146241307Y-104235799D01*
X146235357Y-104234309D01*
X146229582Y-104232242D01*
X146224038Y-104229620D01*
X146218777Y-104226467D01*
X146213850Y-104222813D01*
X146209306Y-104218694D01*
X146205187Y-104214150D01*
X146201533Y-104209223D01*
X146198380Y-104203962D01*
X146195758Y-104198418D01*
X146193691Y-104192643D01*
X146192201Y-104186693D01*
X146191301Y-104180626D01*
X146191000Y-104174500D01*
X146191000Y-103424500D01*
X146191301Y-103418374D01*
X146192201Y-103412307D01*
X146193691Y-103406357D01*
X146195758Y-103400582D01*
X146198380Y-103395038D01*
X146201533Y-103389777D01*
X146205187Y-103384850D01*
X146209306Y-103380306D01*
X146213850Y-103376187D01*
X146218777Y-103372533D01*
X146224038Y-103369380D01*
X146229582Y-103366758D01*
X146235357Y-103364691D01*
X146241307Y-103363201D01*
X146247374Y-103362301D01*
X146253500Y-103362000D01*
X146378500Y-103362000D01*
X146384626Y-103362301D01*
G37*
G36*
X146009626Y-102987301D02*
G01*
X146015693Y-102988201D01*
X146021643Y-102989691D01*
X146027418Y-102991758D01*
X146032962Y-102994380D01*
X146038223Y-102997533D01*
X146043150Y-103001187D01*
X146047694Y-103005306D01*
X146051813Y-103009850D01*
X146055467Y-103014777D01*
X146058620Y-103020038D01*
X146061242Y-103025582D01*
X146063309Y-103031357D01*
X146064799Y-103037307D01*
X146065699Y-103043374D01*
X146066000Y-103049500D01*
X146066000Y-103174500D01*
X146065699Y-103180626D01*
X146064799Y-103186693D01*
X146063309Y-103192643D01*
X146061242Y-103198418D01*
X146058620Y-103203962D01*
X146055467Y-103209223D01*
X146051813Y-103214150D01*
X146047694Y-103218694D01*
X146043150Y-103222813D01*
X146038223Y-103226467D01*
X146032962Y-103229620D01*
X146027418Y-103232242D01*
X146021643Y-103234309D01*
X146015693Y-103235799D01*
X146009626Y-103236699D01*
X146003500Y-103237000D01*
X145253500Y-103237000D01*
X145247374Y-103236699D01*
X145241307Y-103235799D01*
X145235357Y-103234309D01*
X145229582Y-103232242D01*
X145224038Y-103229620D01*
X145218777Y-103226467D01*
X145213850Y-103222813D01*
X145209306Y-103218694D01*
X145205187Y-103214150D01*
X145201533Y-103209223D01*
X145198380Y-103203962D01*
X145195758Y-103198418D01*
X145193691Y-103192643D01*
X145192201Y-103186693D01*
X145191301Y-103180626D01*
X145191000Y-103174500D01*
X145191000Y-103049500D01*
X145191301Y-103043374D01*
X145192201Y-103037307D01*
X145193691Y-103031357D01*
X145195758Y-103025582D01*
X145198380Y-103020038D01*
X145201533Y-103014777D01*
X145205187Y-103009850D01*
X145209306Y-103005306D01*
X145213850Y-103001187D01*
X145218777Y-102997533D01*
X145224038Y-102994380D01*
X145229582Y-102991758D01*
X145235357Y-102989691D01*
X145241307Y-102988201D01*
X145247374Y-102987301D01*
X145253500Y-102987000D01*
X146003500Y-102987000D01*
X146009626Y-102987301D01*
G37*
G36*
X146009626Y-102487301D02*
G01*
X146015693Y-102488201D01*
X146021643Y-102489691D01*
X146027418Y-102491758D01*
X146032962Y-102494380D01*
X146038223Y-102497533D01*
X146043150Y-102501187D01*
X146047694Y-102505306D01*
X146051813Y-102509850D01*
X146055467Y-102514777D01*
X146058620Y-102520038D01*
X146061242Y-102525582D01*
X146063309Y-102531357D01*
X146064799Y-102537307D01*
X146065699Y-102543374D01*
X146066000Y-102549500D01*
X146066000Y-102674500D01*
X146065699Y-102680626D01*
X146064799Y-102686693D01*
X146063309Y-102692643D01*
X146061242Y-102698418D01*
X146058620Y-102703962D01*
X146055467Y-102709223D01*
X146051813Y-102714150D01*
X146047694Y-102718694D01*
X146043150Y-102722813D01*
X146038223Y-102726467D01*
X146032962Y-102729620D01*
X146027418Y-102732242D01*
X146021643Y-102734309D01*
X146015693Y-102735799D01*
X146009626Y-102736699D01*
X146003500Y-102737000D01*
X145253500Y-102737000D01*
X145247374Y-102736699D01*
X145241307Y-102735799D01*
X145235357Y-102734309D01*
X145229582Y-102732242D01*
X145224038Y-102729620D01*
X145218777Y-102726467D01*
X145213850Y-102722813D01*
X145209306Y-102718694D01*
X145205187Y-102714150D01*
X145201533Y-102709223D01*
X145198380Y-102703962D01*
X145195758Y-102698418D01*
X145193691Y-102692643D01*
X145192201Y-102686693D01*
X145191301Y-102680626D01*
X145191000Y-102674500D01*
X145191000Y-102549500D01*
X145191301Y-102543374D01*
X145192201Y-102537307D01*
X145193691Y-102531357D01*
X145195758Y-102525582D01*
X145198380Y-102520038D01*
X145201533Y-102514777D01*
X145205187Y-102509850D01*
X145209306Y-102505306D01*
X145213850Y-102501187D01*
X145218777Y-102497533D01*
X145224038Y-102494380D01*
X145229582Y-102491758D01*
X145235357Y-102489691D01*
X145241307Y-102488201D01*
X145247374Y-102487301D01*
X145253500Y-102487000D01*
X146003500Y-102487000D01*
X146009626Y-102487301D01*
G37*
G36*
X146009626Y-101987301D02*
G01*
X146015693Y-101988201D01*
X146021643Y-101989691D01*
X146027418Y-101991758D01*
X146032962Y-101994380D01*
X146038223Y-101997533D01*
X146043150Y-102001187D01*
X146047694Y-102005306D01*
X146051813Y-102009850D01*
X146055467Y-102014777D01*
X146058620Y-102020038D01*
X146061242Y-102025582D01*
X146063309Y-102031357D01*
X146064799Y-102037307D01*
X146065699Y-102043374D01*
X146066000Y-102049500D01*
X146066000Y-102174500D01*
X146065699Y-102180626D01*
X146064799Y-102186693D01*
X146063309Y-102192643D01*
X146061242Y-102198418D01*
X146058620Y-102203962D01*
X146055467Y-102209223D01*
X146051813Y-102214150D01*
X146047694Y-102218694D01*
X146043150Y-102222813D01*
X146038223Y-102226467D01*
X146032962Y-102229620D01*
X146027418Y-102232242D01*
X146021643Y-102234309D01*
X146015693Y-102235799D01*
X146009626Y-102236699D01*
X146003500Y-102237000D01*
X145253500Y-102237000D01*
X145247374Y-102236699D01*
X145241307Y-102235799D01*
X145235357Y-102234309D01*
X145229582Y-102232242D01*
X145224038Y-102229620D01*
X145218777Y-102226467D01*
X145213850Y-102222813D01*
X145209306Y-102218694D01*
X145205187Y-102214150D01*
X145201533Y-102209223D01*
X145198380Y-102203962D01*
X145195758Y-102198418D01*
X145193691Y-102192643D01*
X145192201Y-102186693D01*
X145191301Y-102180626D01*
X145191000Y-102174500D01*
X145191000Y-102049500D01*
X145191301Y-102043374D01*
X145192201Y-102037307D01*
X145193691Y-102031357D01*
X145195758Y-102025582D01*
X145198380Y-102020038D01*
X145201533Y-102014777D01*
X145205187Y-102009850D01*
X145209306Y-102005306D01*
X145213850Y-102001187D01*
X145218777Y-101997533D01*
X145224038Y-101994380D01*
X145229582Y-101991758D01*
X145235357Y-101989691D01*
X145241307Y-101988201D01*
X145247374Y-101987301D01*
X145253500Y-101987000D01*
X146003500Y-101987000D01*
X146009626Y-101987301D01*
G37*
G36*
X146009626Y-101487301D02*
G01*
X146015693Y-101488201D01*
X146021643Y-101489691D01*
X146027418Y-101491758D01*
X146032962Y-101494380D01*
X146038223Y-101497533D01*
X146043150Y-101501187D01*
X146047694Y-101505306D01*
X146051813Y-101509850D01*
X146055467Y-101514777D01*
X146058620Y-101520038D01*
X146061242Y-101525582D01*
X146063309Y-101531357D01*
X146064799Y-101537307D01*
X146065699Y-101543374D01*
X146066000Y-101549500D01*
X146066000Y-101674500D01*
X146065699Y-101680626D01*
X146064799Y-101686693D01*
X146063309Y-101692643D01*
X146061242Y-101698418D01*
X146058620Y-101703962D01*
X146055467Y-101709223D01*
X146051813Y-101714150D01*
X146047694Y-101718694D01*
X146043150Y-101722813D01*
X146038223Y-101726467D01*
X146032962Y-101729620D01*
X146027418Y-101732242D01*
X146021643Y-101734309D01*
X146015693Y-101735799D01*
X146009626Y-101736699D01*
X146003500Y-101737000D01*
X145253500Y-101737000D01*
X145247374Y-101736699D01*
X145241307Y-101735799D01*
X145235357Y-101734309D01*
X145229582Y-101732242D01*
X145224038Y-101729620D01*
X145218777Y-101726467D01*
X145213850Y-101722813D01*
X145209306Y-101718694D01*
X145205187Y-101714150D01*
X145201533Y-101709223D01*
X145198380Y-101703962D01*
X145195758Y-101698418D01*
X145193691Y-101692643D01*
X145192201Y-101686693D01*
X145191301Y-101680626D01*
X145191000Y-101674500D01*
X145191000Y-101549500D01*
X145191301Y-101543374D01*
X145192201Y-101537307D01*
X145193691Y-101531357D01*
X145195758Y-101525582D01*
X145198380Y-101520038D01*
X145201533Y-101514777D01*
X145205187Y-101509850D01*
X145209306Y-101505306D01*
X145213850Y-101501187D01*
X145218777Y-101497533D01*
X145224038Y-101494380D01*
X145229582Y-101491758D01*
X145235357Y-101489691D01*
X145241307Y-101488201D01*
X145247374Y-101487301D01*
X145253500Y-101487000D01*
X146003500Y-101487000D01*
X146009626Y-101487301D01*
G37*
G36*
X147598938Y-102407758D02*
G01*
X147614227Y-102410026D01*
X147629220Y-102413782D01*
X147643773Y-102418989D01*
X147657745Y-102425597D01*
X147671002Y-102433544D01*
X147683417Y-102442751D01*
X147694869Y-102453131D01*
X147705249Y-102464583D01*
X147714456Y-102476998D01*
X147722403Y-102490255D01*
X147729011Y-102504227D01*
X147734218Y-102518780D01*
X147737974Y-102533773D01*
X147740242Y-102549062D01*
X147741000Y-102564500D01*
X147741000Y-102879500D01*
X147740242Y-102894938D01*
X147737974Y-102910227D01*
X147734218Y-102925220D01*
X147729011Y-102939773D01*
X147722403Y-102953745D01*
X147714456Y-102967002D01*
X147705249Y-102979417D01*
X147694869Y-102990869D01*
X147683417Y-103001249D01*
X147671002Y-103010456D01*
X147657745Y-103018403D01*
X147643773Y-103025011D01*
X147629220Y-103030218D01*
X147614227Y-103033974D01*
X147598938Y-103036242D01*
X147583500Y-103037000D01*
X147268500Y-103037000D01*
X147253062Y-103036242D01*
X147237773Y-103033974D01*
X147222780Y-103030218D01*
X147208227Y-103025011D01*
X147194255Y-103018403D01*
X147180998Y-103010456D01*
X147168583Y-103001249D01*
X147157131Y-102990869D01*
X147146751Y-102979417D01*
X147137544Y-102967002D01*
X147129597Y-102953745D01*
X147122989Y-102939773D01*
X147117782Y-102925220D01*
X147114026Y-102910227D01*
X147111758Y-102894938D01*
X147111000Y-102879500D01*
X147111000Y-102564500D01*
X147111758Y-102549062D01*
X147114026Y-102533773D01*
X147117782Y-102518780D01*
X147122989Y-102504227D01*
X147129597Y-102490255D01*
X147137544Y-102476998D01*
X147146751Y-102464583D01*
X147157131Y-102453131D01*
X147168583Y-102442751D01*
X147180998Y-102433544D01*
X147194255Y-102425597D01*
X147208227Y-102418989D01*
X147222780Y-102413782D01*
X147237773Y-102410026D01*
X147253062Y-102407758D01*
X147268500Y-102407000D01*
X147583500Y-102407000D01*
X147598938Y-102407758D01*
G37*
G36*
X147598938Y-101687758D02*
G01*
X147614227Y-101690026D01*
X147629220Y-101693782D01*
X147643773Y-101698989D01*
X147657745Y-101705597D01*
X147671002Y-101713544D01*
X147683417Y-101722751D01*
X147694869Y-101733131D01*
X147705249Y-101744583D01*
X147714456Y-101756998D01*
X147722403Y-101770255D01*
X147729011Y-101784227D01*
X147734218Y-101798780D01*
X147737974Y-101813773D01*
X147740242Y-101829062D01*
X147741000Y-101844500D01*
X147741000Y-102159500D01*
X147740242Y-102174938D01*
X147737974Y-102190227D01*
X147734218Y-102205220D01*
X147729011Y-102219773D01*
X147722403Y-102233745D01*
X147714456Y-102247002D01*
X147705249Y-102259417D01*
X147694869Y-102270869D01*
X147683417Y-102281249D01*
X147671002Y-102290456D01*
X147657745Y-102298403D01*
X147643773Y-102305011D01*
X147629220Y-102310218D01*
X147614227Y-102313974D01*
X147598938Y-102316242D01*
X147583500Y-102317000D01*
X147268500Y-102317000D01*
X147253062Y-102316242D01*
X147237773Y-102313974D01*
X147222780Y-102310218D01*
X147208227Y-102305011D01*
X147194255Y-102298403D01*
X147180998Y-102290456D01*
X147168583Y-102281249D01*
X147157131Y-102270869D01*
X147146751Y-102259417D01*
X147137544Y-102247002D01*
X147129597Y-102233745D01*
X147122989Y-102219773D01*
X147117782Y-102205220D01*
X147114026Y-102190227D01*
X147111758Y-102174938D01*
X147111000Y-102159500D01*
X147111000Y-101844500D01*
X147111758Y-101829062D01*
X147114026Y-101813773D01*
X147117782Y-101798780D01*
X147122989Y-101784227D01*
X147129597Y-101770255D01*
X147137544Y-101756998D01*
X147146751Y-101744583D01*
X147157131Y-101733131D01*
X147168583Y-101722751D01*
X147180998Y-101713544D01*
X147194255Y-101705597D01*
X147208227Y-101698989D01*
X147222780Y-101693782D01*
X147237773Y-101690026D01*
X147253062Y-101687758D01*
X147268500Y-101687000D01*
X147583500Y-101687000D01*
X147598938Y-101687758D01*
G37*
G36*
X146878938Y-102407758D02*
G01*
X146894227Y-102410026D01*
X146909220Y-102413782D01*
X146923773Y-102418989D01*
X146937745Y-102425597D01*
X146951002Y-102433544D01*
X146963417Y-102442751D01*
X146974869Y-102453131D01*
X146985249Y-102464583D01*
X146994456Y-102476998D01*
X147002403Y-102490255D01*
X147009011Y-102504227D01*
X147014218Y-102518780D01*
X147017974Y-102533773D01*
X147020242Y-102549062D01*
X147021000Y-102564500D01*
X147021000Y-102879500D01*
X147020242Y-102894938D01*
X147017974Y-102910227D01*
X147014218Y-102925220D01*
X147009011Y-102939773D01*
X147002403Y-102953745D01*
X146994456Y-102967002D01*
X146985249Y-102979417D01*
X146974869Y-102990869D01*
X146963417Y-103001249D01*
X146951002Y-103010456D01*
X146937745Y-103018403D01*
X146923773Y-103025011D01*
X146909220Y-103030218D01*
X146894227Y-103033974D01*
X146878938Y-103036242D01*
X146863500Y-103037000D01*
X146548500Y-103037000D01*
X146533062Y-103036242D01*
X146517773Y-103033974D01*
X146502780Y-103030218D01*
X146488227Y-103025011D01*
X146474255Y-103018403D01*
X146460998Y-103010456D01*
X146448583Y-103001249D01*
X146437131Y-102990869D01*
X146426751Y-102979417D01*
X146417544Y-102967002D01*
X146409597Y-102953745D01*
X146402989Y-102939773D01*
X146397782Y-102925220D01*
X146394026Y-102910227D01*
X146391758Y-102894938D01*
X146391000Y-102879500D01*
X146391000Y-102564500D01*
X146391758Y-102549062D01*
X146394026Y-102533773D01*
X146397782Y-102518780D01*
X146402989Y-102504227D01*
X146409597Y-102490255D01*
X146417544Y-102476998D01*
X146426751Y-102464583D01*
X146437131Y-102453131D01*
X146448583Y-102442751D01*
X146460998Y-102433544D01*
X146474255Y-102425597D01*
X146488227Y-102418989D01*
X146502780Y-102413782D01*
X146517773Y-102410026D01*
X146533062Y-102407758D01*
X146548500Y-102407000D01*
X146863500Y-102407000D01*
X146878938Y-102407758D01*
G37*
G36*
X146878938Y-101687758D02*
G01*
X146894227Y-101690026D01*
X146909220Y-101693782D01*
X146923773Y-101698989D01*
X146937745Y-101705597D01*
X146951002Y-101713544D01*
X146963417Y-101722751D01*
X146974869Y-101733131D01*
X146985249Y-101744583D01*
X146994456Y-101756998D01*
X147002403Y-101770255D01*
X147009011Y-101784227D01*
X147014218Y-101798780D01*
X147017974Y-101813773D01*
X147020242Y-101829062D01*
X147021000Y-101844500D01*
X147021000Y-102159500D01*
X147020242Y-102174938D01*
X147017974Y-102190227D01*
X147014218Y-102205220D01*
X147009011Y-102219773D01*
X147002403Y-102233745D01*
X146994456Y-102247002D01*
X146985249Y-102259417D01*
X146974869Y-102270869D01*
X146963417Y-102281249D01*
X146951002Y-102290456D01*
X146937745Y-102298403D01*
X146923773Y-102305011D01*
X146909220Y-102310218D01*
X146894227Y-102313974D01*
X146878938Y-102316242D01*
X146863500Y-102317000D01*
X146548500Y-102317000D01*
X146533062Y-102316242D01*
X146517773Y-102313974D01*
X146502780Y-102310218D01*
X146488227Y-102305011D01*
X146474255Y-102298403D01*
X146460998Y-102290456D01*
X146448583Y-102281249D01*
X146437131Y-102270869D01*
X146426751Y-102259417D01*
X146417544Y-102247002D01*
X146409597Y-102233745D01*
X146402989Y-102219773D01*
X146397782Y-102205220D01*
X146394026Y-102190227D01*
X146391758Y-102174938D01*
X146391000Y-102159500D01*
X146391000Y-101844500D01*
X146391758Y-101829062D01*
X146394026Y-101813773D01*
X146397782Y-101798780D01*
X146402989Y-101784227D01*
X146409597Y-101770255D01*
X146417544Y-101756998D01*
X146426751Y-101744583D01*
X146437131Y-101733131D01*
X146448583Y-101722751D01*
X146460998Y-101713544D01*
X146474255Y-101705597D01*
X146488227Y-101698989D01*
X146502780Y-101693782D01*
X146517773Y-101690026D01*
X146533062Y-101687758D01*
X146548500Y-101687000D01*
X146863500Y-101687000D01*
X146878938Y-101687758D01*
G37*
G36*
X144232191Y-96566053D02*
G01*
X144253426Y-96569203D01*
X144274250Y-96574419D01*
X144294462Y-96581651D01*
X144313868Y-96590830D01*
X144332281Y-96601866D01*
X144349524Y-96614654D01*
X144365430Y-96629070D01*
X144379846Y-96644976D01*
X144392634Y-96662219D01*
X144403670Y-96680632D01*
X144412849Y-96700038D01*
X144420081Y-96720250D01*
X144425297Y-96741074D01*
X144428447Y-96762309D01*
X144429500Y-96783750D01*
X144429500Y-97221250D01*
X144428447Y-97242691D01*
X144425297Y-97263926D01*
X144420081Y-97284750D01*
X144412849Y-97304962D01*
X144403670Y-97324368D01*
X144392634Y-97342781D01*
X144379846Y-97360024D01*
X144365430Y-97375930D01*
X144349524Y-97390346D01*
X144332281Y-97403134D01*
X144313868Y-97414170D01*
X144294462Y-97423349D01*
X144274250Y-97430581D01*
X144253426Y-97435797D01*
X144232191Y-97438947D01*
X144210750Y-97440000D01*
X143698250Y-97440000D01*
X143676809Y-97438947D01*
X143655574Y-97435797D01*
X143634750Y-97430581D01*
X143614538Y-97423349D01*
X143595132Y-97414170D01*
X143576719Y-97403134D01*
X143559476Y-97390346D01*
X143543570Y-97375930D01*
X143529154Y-97360024D01*
X143516366Y-97342781D01*
X143505330Y-97324368D01*
X143496151Y-97304962D01*
X143488919Y-97284750D01*
X143483703Y-97263926D01*
X143480553Y-97242691D01*
X143479500Y-97221250D01*
X143479500Y-96783750D01*
X143480553Y-96762309D01*
X143483703Y-96741074D01*
X143488919Y-96720250D01*
X143496151Y-96700038D01*
X143505330Y-96680632D01*
X143516366Y-96662219D01*
X143529154Y-96644976D01*
X143543570Y-96629070D01*
X143559476Y-96614654D01*
X143576719Y-96601866D01*
X143595132Y-96590830D01*
X143614538Y-96581651D01*
X143634750Y-96574419D01*
X143655574Y-96569203D01*
X143676809Y-96566053D01*
X143698250Y-96565000D01*
X144210750Y-96565000D01*
X144232191Y-96566053D01*
G37*
G36*
X144232191Y-98141053D02*
G01*
X144253426Y-98144203D01*
X144274250Y-98149419D01*
X144294462Y-98156651D01*
X144313868Y-98165830D01*
X144332281Y-98176866D01*
X144349524Y-98189654D01*
X144365430Y-98204070D01*
X144379846Y-98219976D01*
X144392634Y-98237219D01*
X144403670Y-98255632D01*
X144412849Y-98275038D01*
X144420081Y-98295250D01*
X144425297Y-98316074D01*
X144428447Y-98337309D01*
X144429500Y-98358750D01*
X144429500Y-98796250D01*
X144428447Y-98817691D01*
X144425297Y-98838926D01*
X144420081Y-98859750D01*
X144412849Y-98879962D01*
X144403670Y-98899368D01*
X144392634Y-98917781D01*
X144379846Y-98935024D01*
X144365430Y-98950930D01*
X144349524Y-98965346D01*
X144332281Y-98978134D01*
X144313868Y-98989170D01*
X144294462Y-98998349D01*
X144274250Y-99005581D01*
X144253426Y-99010797D01*
X144232191Y-99013947D01*
X144210750Y-99015000D01*
X143698250Y-99015000D01*
X143676809Y-99013947D01*
X143655574Y-99010797D01*
X143634750Y-99005581D01*
X143614538Y-98998349D01*
X143595132Y-98989170D01*
X143576719Y-98978134D01*
X143559476Y-98965346D01*
X143543570Y-98950930D01*
X143529154Y-98935024D01*
X143516366Y-98917781D01*
X143505330Y-98899368D01*
X143496151Y-98879962D01*
X143488919Y-98859750D01*
X143483703Y-98838926D01*
X143480553Y-98817691D01*
X143479500Y-98796250D01*
X143479500Y-98358750D01*
X143480553Y-98337309D01*
X143483703Y-98316074D01*
X143488919Y-98295250D01*
X143496151Y-98275038D01*
X143505330Y-98255632D01*
X143516366Y-98237219D01*
X143529154Y-98219976D01*
X143543570Y-98204070D01*
X143559476Y-98189654D01*
X143576719Y-98176866D01*
X143595132Y-98165830D01*
X143614538Y-98156651D01*
X143634750Y-98149419D01*
X143655574Y-98144203D01*
X143676809Y-98141053D01*
X143698250Y-98140000D01*
X144210750Y-98140000D01*
X144232191Y-98141053D01*
G37*
G36*
X154138691Y-101253053D02*
G01*
X154159926Y-101256203D01*
X154180750Y-101261419D01*
X154200962Y-101268651D01*
X154220368Y-101277830D01*
X154238781Y-101288866D01*
X154256024Y-101301654D01*
X154271930Y-101316070D01*
X154286346Y-101331976D01*
X154299134Y-101349219D01*
X154310170Y-101367632D01*
X154319349Y-101387038D01*
X154326581Y-101407250D01*
X154331797Y-101428074D01*
X154334947Y-101449309D01*
X154336000Y-101470750D01*
X154336000Y-101983250D01*
X154334947Y-102004691D01*
X154331797Y-102025926D01*
X154326581Y-102046750D01*
X154319349Y-102066962D01*
X154310170Y-102086368D01*
X154299134Y-102104781D01*
X154286346Y-102122024D01*
X154271930Y-102137930D01*
X154256024Y-102152346D01*
X154238781Y-102165134D01*
X154220368Y-102176170D01*
X154200962Y-102185349D01*
X154180750Y-102192581D01*
X154159926Y-102197797D01*
X154138691Y-102200947D01*
X154117250Y-102202000D01*
X153679750Y-102202000D01*
X153658309Y-102200947D01*
X153637074Y-102197797D01*
X153616250Y-102192581D01*
X153596038Y-102185349D01*
X153576632Y-102176170D01*
X153558219Y-102165134D01*
X153540976Y-102152346D01*
X153525070Y-102137930D01*
X153510654Y-102122024D01*
X153497866Y-102104781D01*
X153486830Y-102086368D01*
X153477651Y-102066962D01*
X153470419Y-102046750D01*
X153465203Y-102025926D01*
X153462053Y-102004691D01*
X153461000Y-101983250D01*
X153461000Y-101470750D01*
X153462053Y-101449309D01*
X153465203Y-101428074D01*
X153470419Y-101407250D01*
X153477651Y-101387038D01*
X153486830Y-101367632D01*
X153497866Y-101349219D01*
X153510654Y-101331976D01*
X153525070Y-101316070D01*
X153540976Y-101301654D01*
X153558219Y-101288866D01*
X153576632Y-101277830D01*
X153596038Y-101268651D01*
X153616250Y-101261419D01*
X153637074Y-101256203D01*
X153658309Y-101253053D01*
X153679750Y-101252000D01*
X154117250Y-101252000D01*
X154138691Y-101253053D01*
G37*
G36*
X155713691Y-101253053D02*
G01*
X155734926Y-101256203D01*
X155755750Y-101261419D01*
X155775962Y-101268651D01*
X155795368Y-101277830D01*
X155813781Y-101288866D01*
X155831024Y-101301654D01*
X155846930Y-101316070D01*
X155861346Y-101331976D01*
X155874134Y-101349219D01*
X155885170Y-101367632D01*
X155894349Y-101387038D01*
X155901581Y-101407250D01*
X155906797Y-101428074D01*
X155909947Y-101449309D01*
X155911000Y-101470750D01*
X155911000Y-101983250D01*
X155909947Y-102004691D01*
X155906797Y-102025926D01*
X155901581Y-102046750D01*
X155894349Y-102066962D01*
X155885170Y-102086368D01*
X155874134Y-102104781D01*
X155861346Y-102122024D01*
X155846930Y-102137930D01*
X155831024Y-102152346D01*
X155813781Y-102165134D01*
X155795368Y-102176170D01*
X155775962Y-102185349D01*
X155755750Y-102192581D01*
X155734926Y-102197797D01*
X155713691Y-102200947D01*
X155692250Y-102202000D01*
X155254750Y-102202000D01*
X155233309Y-102200947D01*
X155212074Y-102197797D01*
X155191250Y-102192581D01*
X155171038Y-102185349D01*
X155151632Y-102176170D01*
X155133219Y-102165134D01*
X155115976Y-102152346D01*
X155100070Y-102137930D01*
X155085654Y-102122024D01*
X155072866Y-102104781D01*
X155061830Y-102086368D01*
X155052651Y-102066962D01*
X155045419Y-102046750D01*
X155040203Y-102025926D01*
X155037053Y-102004691D01*
X155036000Y-101983250D01*
X155036000Y-101470750D01*
X155037053Y-101449309D01*
X155040203Y-101428074D01*
X155045419Y-101407250D01*
X155052651Y-101387038D01*
X155061830Y-101367632D01*
X155072866Y-101349219D01*
X155085654Y-101331976D01*
X155100070Y-101316070D01*
X155115976Y-101301654D01*
X155133219Y-101288866D01*
X155151632Y-101277830D01*
X155171038Y-101268651D01*
X155191250Y-101261419D01*
X155212074Y-101256203D01*
X155233309Y-101253053D01*
X155254750Y-101252000D01*
X155692250Y-101252000D01*
X155713691Y-101253053D01*
G37*
G36*
X154138691Y-102777053D02*
G01*
X154159926Y-102780203D01*
X154180750Y-102785419D01*
X154200962Y-102792651D01*
X154220368Y-102801830D01*
X154238781Y-102812866D01*
X154256024Y-102825654D01*
X154271930Y-102840070D01*
X154286346Y-102855976D01*
X154299134Y-102873219D01*
X154310170Y-102891632D01*
X154319349Y-102911038D01*
X154326581Y-102931250D01*
X154331797Y-102952074D01*
X154334947Y-102973309D01*
X154336000Y-102994750D01*
X154336000Y-103507250D01*
X154334947Y-103528691D01*
X154331797Y-103549926D01*
X154326581Y-103570750D01*
X154319349Y-103590962D01*
X154310170Y-103610368D01*
X154299134Y-103628781D01*
X154286346Y-103646024D01*
X154271930Y-103661930D01*
X154256024Y-103676346D01*
X154238781Y-103689134D01*
X154220368Y-103700170D01*
X154200962Y-103709349D01*
X154180750Y-103716581D01*
X154159926Y-103721797D01*
X154138691Y-103724947D01*
X154117250Y-103726000D01*
X153679750Y-103726000D01*
X153658309Y-103724947D01*
X153637074Y-103721797D01*
X153616250Y-103716581D01*
X153596038Y-103709349D01*
X153576632Y-103700170D01*
X153558219Y-103689134D01*
X153540976Y-103676346D01*
X153525070Y-103661930D01*
X153510654Y-103646024D01*
X153497866Y-103628781D01*
X153486830Y-103610368D01*
X153477651Y-103590962D01*
X153470419Y-103570750D01*
X153465203Y-103549926D01*
X153462053Y-103528691D01*
X153461000Y-103507250D01*
X153461000Y-102994750D01*
X153462053Y-102973309D01*
X153465203Y-102952074D01*
X153470419Y-102931250D01*
X153477651Y-102911038D01*
X153486830Y-102891632D01*
X153497866Y-102873219D01*
X153510654Y-102855976D01*
X153525070Y-102840070D01*
X153540976Y-102825654D01*
X153558219Y-102812866D01*
X153576632Y-102801830D01*
X153596038Y-102792651D01*
X153616250Y-102785419D01*
X153637074Y-102780203D01*
X153658309Y-102777053D01*
X153679750Y-102776000D01*
X154117250Y-102776000D01*
X154138691Y-102777053D01*
G37*
G36*
X155713691Y-102777053D02*
G01*
X155734926Y-102780203D01*
X155755750Y-102785419D01*
X155775962Y-102792651D01*
X155795368Y-102801830D01*
X155813781Y-102812866D01*
X155831024Y-102825654D01*
X155846930Y-102840070D01*
X155861346Y-102855976D01*
X155874134Y-102873219D01*
X155885170Y-102891632D01*
X155894349Y-102911038D01*
X155901581Y-102931250D01*
X155906797Y-102952074D01*
X155909947Y-102973309D01*
X155911000Y-102994750D01*
X155911000Y-103507250D01*
X155909947Y-103528691D01*
X155906797Y-103549926D01*
X155901581Y-103570750D01*
X155894349Y-103590962D01*
X155885170Y-103610368D01*
X155874134Y-103628781D01*
X155861346Y-103646024D01*
X155846930Y-103661930D01*
X155831024Y-103676346D01*
X155813781Y-103689134D01*
X155795368Y-103700170D01*
X155775962Y-103709349D01*
X155755750Y-103716581D01*
X155734926Y-103721797D01*
X155713691Y-103724947D01*
X155692250Y-103726000D01*
X155254750Y-103726000D01*
X155233309Y-103724947D01*
X155212074Y-103721797D01*
X155191250Y-103716581D01*
X155171038Y-103709349D01*
X155151632Y-103700170D01*
X155133219Y-103689134D01*
X155115976Y-103676346D01*
X155100070Y-103661930D01*
X155085654Y-103646024D01*
X155072866Y-103628781D01*
X155061830Y-103610368D01*
X155052651Y-103590962D01*
X155045419Y-103570750D01*
X155040203Y-103549926D01*
X155037053Y-103528691D01*
X155036000Y-103507250D01*
X155036000Y-102994750D01*
X155037053Y-102973309D01*
X155040203Y-102952074D01*
X155045419Y-102931250D01*
X155052651Y-102911038D01*
X155061830Y-102891632D01*
X155072866Y-102873219D01*
X155085654Y-102855976D01*
X155100070Y-102840070D01*
X155115976Y-102825654D01*
X155133219Y-102812866D01*
X155151632Y-102801830D01*
X155171038Y-102792651D01*
X155191250Y-102785419D01*
X155212074Y-102780203D01*
X155233309Y-102777053D01*
X155254750Y-102776000D01*
X155692250Y-102776000D01*
X155713691Y-102777053D01*
G37*
G36*
X152665691Y-101253053D02*
G01*
X152686926Y-101256203D01*
X152707750Y-101261419D01*
X152727962Y-101268651D01*
X152747368Y-101277830D01*
X152765781Y-101288866D01*
X152783024Y-101301654D01*
X152798930Y-101316070D01*
X152813346Y-101331976D01*
X152826134Y-101349219D01*
X152837170Y-101367632D01*
X152846349Y-101387038D01*
X152853581Y-101407250D01*
X152858797Y-101428074D01*
X152861947Y-101449309D01*
X152863000Y-101470750D01*
X152863000Y-101983250D01*
X152861947Y-102004691D01*
X152858797Y-102025926D01*
X152853581Y-102046750D01*
X152846349Y-102066962D01*
X152837170Y-102086368D01*
X152826134Y-102104781D01*
X152813346Y-102122024D01*
X152798930Y-102137930D01*
X152783024Y-102152346D01*
X152765781Y-102165134D01*
X152747368Y-102176170D01*
X152727962Y-102185349D01*
X152707750Y-102192581D01*
X152686926Y-102197797D01*
X152665691Y-102200947D01*
X152644250Y-102202000D01*
X152206750Y-102202000D01*
X152185309Y-102200947D01*
X152164074Y-102197797D01*
X152143250Y-102192581D01*
X152123038Y-102185349D01*
X152103632Y-102176170D01*
X152085219Y-102165134D01*
X152067976Y-102152346D01*
X152052070Y-102137930D01*
X152037654Y-102122024D01*
X152024866Y-102104781D01*
X152013830Y-102086368D01*
X152004651Y-102066962D01*
X151997419Y-102046750D01*
X151992203Y-102025926D01*
X151989053Y-102004691D01*
X151988000Y-101983250D01*
X151988000Y-101470750D01*
X151989053Y-101449309D01*
X151992203Y-101428074D01*
X151997419Y-101407250D01*
X152004651Y-101387038D01*
X152013830Y-101367632D01*
X152024866Y-101349219D01*
X152037654Y-101331976D01*
X152052070Y-101316070D01*
X152067976Y-101301654D01*
X152085219Y-101288866D01*
X152103632Y-101277830D01*
X152123038Y-101268651D01*
X152143250Y-101261419D01*
X152164074Y-101256203D01*
X152185309Y-101253053D01*
X152206750Y-101252000D01*
X152644250Y-101252000D01*
X152665691Y-101253053D01*
G37*
G36*
X151090691Y-101253053D02*
G01*
X151111926Y-101256203D01*
X151132750Y-101261419D01*
X151152962Y-101268651D01*
X151172368Y-101277830D01*
X151190781Y-101288866D01*
X151208024Y-101301654D01*
X151223930Y-101316070D01*
X151238346Y-101331976D01*
X151251134Y-101349219D01*
X151262170Y-101367632D01*
X151271349Y-101387038D01*
X151278581Y-101407250D01*
X151283797Y-101428074D01*
X151286947Y-101449309D01*
X151288000Y-101470750D01*
X151288000Y-101983250D01*
X151286947Y-102004691D01*
X151283797Y-102025926D01*
X151278581Y-102046750D01*
X151271349Y-102066962D01*
X151262170Y-102086368D01*
X151251134Y-102104781D01*
X151238346Y-102122024D01*
X151223930Y-102137930D01*
X151208024Y-102152346D01*
X151190781Y-102165134D01*
X151172368Y-102176170D01*
X151152962Y-102185349D01*
X151132750Y-102192581D01*
X151111926Y-102197797D01*
X151090691Y-102200947D01*
X151069250Y-102202000D01*
X150631750Y-102202000D01*
X150610309Y-102200947D01*
X150589074Y-102197797D01*
X150568250Y-102192581D01*
X150548038Y-102185349D01*
X150528632Y-102176170D01*
X150510219Y-102165134D01*
X150492976Y-102152346D01*
X150477070Y-102137930D01*
X150462654Y-102122024D01*
X150449866Y-102104781D01*
X150438830Y-102086368D01*
X150429651Y-102066962D01*
X150422419Y-102046750D01*
X150417203Y-102025926D01*
X150414053Y-102004691D01*
X150413000Y-101983250D01*
X150413000Y-101470750D01*
X150414053Y-101449309D01*
X150417203Y-101428074D01*
X150422419Y-101407250D01*
X150429651Y-101387038D01*
X150438830Y-101367632D01*
X150449866Y-101349219D01*
X150462654Y-101331976D01*
X150477070Y-101316070D01*
X150492976Y-101301654D01*
X150510219Y-101288866D01*
X150528632Y-101277830D01*
X150548038Y-101268651D01*
X150568250Y-101261419D01*
X150589074Y-101256203D01*
X150610309Y-101253053D01*
X150631750Y-101252000D01*
X151069250Y-101252000D01*
X151090691Y-101253053D01*
G37*
G36*
X152665691Y-102777053D02*
G01*
X152686926Y-102780203D01*
X152707750Y-102785419D01*
X152727962Y-102792651D01*
X152747368Y-102801830D01*
X152765781Y-102812866D01*
X152783024Y-102825654D01*
X152798930Y-102840070D01*
X152813346Y-102855976D01*
X152826134Y-102873219D01*
X152837170Y-102891632D01*
X152846349Y-102911038D01*
X152853581Y-102931250D01*
X152858797Y-102952074D01*
X152861947Y-102973309D01*
X152863000Y-102994750D01*
X152863000Y-103507250D01*
X152861947Y-103528691D01*
X152858797Y-103549926D01*
X152853581Y-103570750D01*
X152846349Y-103590962D01*
X152837170Y-103610368D01*
X152826134Y-103628781D01*
X152813346Y-103646024D01*
X152798930Y-103661930D01*
X152783024Y-103676346D01*
X152765781Y-103689134D01*
X152747368Y-103700170D01*
X152727962Y-103709349D01*
X152707750Y-103716581D01*
X152686926Y-103721797D01*
X152665691Y-103724947D01*
X152644250Y-103726000D01*
X152206750Y-103726000D01*
X152185309Y-103724947D01*
X152164074Y-103721797D01*
X152143250Y-103716581D01*
X152123038Y-103709349D01*
X152103632Y-103700170D01*
X152085219Y-103689134D01*
X152067976Y-103676346D01*
X152052070Y-103661930D01*
X152037654Y-103646024D01*
X152024866Y-103628781D01*
X152013830Y-103610368D01*
X152004651Y-103590962D01*
X151997419Y-103570750D01*
X151992203Y-103549926D01*
X151989053Y-103528691D01*
X151988000Y-103507250D01*
X151988000Y-102994750D01*
X151989053Y-102973309D01*
X151992203Y-102952074D01*
X151997419Y-102931250D01*
X152004651Y-102911038D01*
X152013830Y-102891632D01*
X152024866Y-102873219D01*
X152037654Y-102855976D01*
X152052070Y-102840070D01*
X152067976Y-102825654D01*
X152085219Y-102812866D01*
X152103632Y-102801830D01*
X152123038Y-102792651D01*
X152143250Y-102785419D01*
X152164074Y-102780203D01*
X152185309Y-102777053D01*
X152206750Y-102776000D01*
X152644250Y-102776000D01*
X152665691Y-102777053D01*
G37*
G36*
X151090691Y-102777053D02*
G01*
X151111926Y-102780203D01*
X151132750Y-102785419D01*
X151152962Y-102792651D01*
X151172368Y-102801830D01*
X151190781Y-102812866D01*
X151208024Y-102825654D01*
X151223930Y-102840070D01*
X151238346Y-102855976D01*
X151251134Y-102873219D01*
X151262170Y-102891632D01*
X151271349Y-102911038D01*
X151278581Y-102931250D01*
X151283797Y-102952074D01*
X151286947Y-102973309D01*
X151288000Y-102994750D01*
X151288000Y-103507250D01*
X151286947Y-103528691D01*
X151283797Y-103549926D01*
X151278581Y-103570750D01*
X151271349Y-103590962D01*
X151262170Y-103610368D01*
X151251134Y-103628781D01*
X151238346Y-103646024D01*
X151223930Y-103661930D01*
X151208024Y-103676346D01*
X151190781Y-103689134D01*
X151172368Y-103700170D01*
X151152962Y-103709349D01*
X151132750Y-103716581D01*
X151111926Y-103721797D01*
X151090691Y-103724947D01*
X151069250Y-103726000D01*
X150631750Y-103726000D01*
X150610309Y-103724947D01*
X150589074Y-103721797D01*
X150568250Y-103716581D01*
X150548038Y-103709349D01*
X150528632Y-103700170D01*
X150510219Y-103689134D01*
X150492976Y-103676346D01*
X150477070Y-103661930D01*
X150462654Y-103646024D01*
X150449866Y-103628781D01*
X150438830Y-103610368D01*
X150429651Y-103590962D01*
X150422419Y-103570750D01*
X150417203Y-103549926D01*
X150414053Y-103528691D01*
X150413000Y-103507250D01*
X150413000Y-102994750D01*
X150414053Y-102973309D01*
X150417203Y-102952074D01*
X150422419Y-102931250D01*
X150429651Y-102911038D01*
X150438830Y-102891632D01*
X150449866Y-102873219D01*
X150462654Y-102855976D01*
X150477070Y-102840070D01*
X150492976Y-102825654D01*
X150510219Y-102812866D01*
X150528632Y-102801830D01*
X150548038Y-102792651D01*
X150568250Y-102785419D01*
X150589074Y-102780203D01*
X150610309Y-102777053D01*
X150631750Y-102776000D01*
X151069250Y-102776000D01*
X151090691Y-102777053D01*
G37*
G36*
X150714142Y-98615174D02*
G01*
X150737803Y-98618684D01*
X150761007Y-98624496D01*
X150783529Y-98632554D01*
X150805153Y-98642782D01*
X150825670Y-98655079D01*
X150844883Y-98669329D01*
X150862607Y-98685393D01*
X150878671Y-98703117D01*
X150892921Y-98722330D01*
X150905218Y-98742847D01*
X150915446Y-98764471D01*
X150923504Y-98786993D01*
X150929316Y-98810197D01*
X150932826Y-98833858D01*
X150934000Y-98857750D01*
X150934000Y-99770250D01*
X150932826Y-99794142D01*
X150929316Y-99817803D01*
X150923504Y-99841007D01*
X150915446Y-99863529D01*
X150905218Y-99885153D01*
X150892921Y-99905670D01*
X150878671Y-99924883D01*
X150862607Y-99942607D01*
X150844883Y-99958671D01*
X150825670Y-99972921D01*
X150805153Y-99985218D01*
X150783529Y-99995446D01*
X150761007Y-100003504D01*
X150737803Y-100009316D01*
X150714142Y-100012826D01*
X150690250Y-100014000D01*
X150202750Y-100014000D01*
X150178858Y-100012826D01*
X150155197Y-100009316D01*
X150131993Y-100003504D01*
X150109471Y-99995446D01*
X150087847Y-99985218D01*
X150067330Y-99972921D01*
X150048117Y-99958671D01*
X150030393Y-99942607D01*
X150014329Y-99924883D01*
X150000079Y-99905670D01*
X149987782Y-99885153D01*
X149977554Y-99863529D01*
X149969496Y-99841007D01*
X149963684Y-99817803D01*
X149960174Y-99794142D01*
X149959000Y-99770250D01*
X149959000Y-98857750D01*
X149960174Y-98833858D01*
X149963684Y-98810197D01*
X149969496Y-98786993D01*
X149977554Y-98764471D01*
X149987782Y-98742847D01*
X150000079Y-98722330D01*
X150014329Y-98703117D01*
X150030393Y-98685393D01*
X150048117Y-98669329D01*
X150067330Y-98655079D01*
X150087847Y-98642782D01*
X150109471Y-98632554D01*
X150131993Y-98624496D01*
X150155197Y-98618684D01*
X150178858Y-98615174D01*
X150202750Y-98614000D01*
X150690250Y-98614000D01*
X150714142Y-98615174D01*
G37*
G36*
X152589142Y-98615174D02*
G01*
X152612803Y-98618684D01*
X152636007Y-98624496D01*
X152658529Y-98632554D01*
X152680153Y-98642782D01*
X152700670Y-98655079D01*
X152719883Y-98669329D01*
X152737607Y-98685393D01*
X152753671Y-98703117D01*
X152767921Y-98722330D01*
X152780218Y-98742847D01*
X152790446Y-98764471D01*
X152798504Y-98786993D01*
X152804316Y-98810197D01*
X152807826Y-98833858D01*
X152809000Y-98857750D01*
X152809000Y-99770250D01*
X152807826Y-99794142D01*
X152804316Y-99817803D01*
X152798504Y-99841007D01*
X152790446Y-99863529D01*
X152780218Y-99885153D01*
X152767921Y-99905670D01*
X152753671Y-99924883D01*
X152737607Y-99942607D01*
X152719883Y-99958671D01*
X152700670Y-99972921D01*
X152680153Y-99985218D01*
X152658529Y-99995446D01*
X152636007Y-100003504D01*
X152612803Y-100009316D01*
X152589142Y-100012826D01*
X152565250Y-100014000D01*
X152077750Y-100014000D01*
X152053858Y-100012826D01*
X152030197Y-100009316D01*
X152006993Y-100003504D01*
X151984471Y-99995446D01*
X151962847Y-99985218D01*
X151942330Y-99972921D01*
X151923117Y-99958671D01*
X151905393Y-99942607D01*
X151889329Y-99924883D01*
X151875079Y-99905670D01*
X151862782Y-99885153D01*
X151852554Y-99863529D01*
X151844496Y-99841007D01*
X151838684Y-99817803D01*
X151835174Y-99794142D01*
X151834000Y-99770250D01*
X151834000Y-98857750D01*
X151835174Y-98833858D01*
X151838684Y-98810197D01*
X151844496Y-98786993D01*
X151852554Y-98764471D01*
X151862782Y-98742847D01*
X151875079Y-98722330D01*
X151889329Y-98703117D01*
X151905393Y-98685393D01*
X151923117Y-98669329D01*
X151942330Y-98655079D01*
X151962847Y-98642782D01*
X151984471Y-98632554D01*
X152006993Y-98624496D01*
X152030197Y-98618684D01*
X152053858Y-98615174D01*
X152077750Y-98614000D01*
X152565250Y-98614000D01*
X152589142Y-98615174D01*
G37*
G36*
X143914691Y-100503053D02*
G01*
X143935926Y-100506203D01*
X143956750Y-100511419D01*
X143976962Y-100518651D01*
X143996368Y-100527830D01*
X144014781Y-100538866D01*
X144032024Y-100551654D01*
X144047930Y-100566070D01*
X144062346Y-100581976D01*
X144075134Y-100599219D01*
X144086170Y-100617632D01*
X144095349Y-100637038D01*
X144102581Y-100657250D01*
X144107797Y-100678074D01*
X144110947Y-100699309D01*
X144112000Y-100720750D01*
X144112000Y-101158250D01*
X144110947Y-101179691D01*
X144107797Y-101200926D01*
X144102581Y-101221750D01*
X144095349Y-101241962D01*
X144086170Y-101261368D01*
X144075134Y-101279781D01*
X144062346Y-101297024D01*
X144047930Y-101312930D01*
X144032024Y-101327346D01*
X144014781Y-101340134D01*
X143996368Y-101351170D01*
X143976962Y-101360349D01*
X143956750Y-101367581D01*
X143935926Y-101372797D01*
X143914691Y-101375947D01*
X143893250Y-101377000D01*
X143380750Y-101377000D01*
X143359309Y-101375947D01*
X143338074Y-101372797D01*
X143317250Y-101367581D01*
X143297038Y-101360349D01*
X143277632Y-101351170D01*
X143259219Y-101340134D01*
X143241976Y-101327346D01*
X143226070Y-101312930D01*
X143211654Y-101297024D01*
X143198866Y-101279781D01*
X143187830Y-101261368D01*
X143178651Y-101241962D01*
X143171419Y-101221750D01*
X143166203Y-101200926D01*
X143163053Y-101179691D01*
X143162000Y-101158250D01*
X143162000Y-100720750D01*
X143163053Y-100699309D01*
X143166203Y-100678074D01*
X143171419Y-100657250D01*
X143178651Y-100637038D01*
X143187830Y-100617632D01*
X143198866Y-100599219D01*
X143211654Y-100581976D01*
X143226070Y-100566070D01*
X143241976Y-100551654D01*
X143259219Y-100538866D01*
X143277632Y-100527830D01*
X143297038Y-100518651D01*
X143317250Y-100511419D01*
X143338074Y-100506203D01*
X143359309Y-100503053D01*
X143380750Y-100502000D01*
X143893250Y-100502000D01*
X143914691Y-100503053D01*
G37*
G36*
X143914691Y-102078053D02*
G01*
X143935926Y-102081203D01*
X143956750Y-102086419D01*
X143976962Y-102093651D01*
X143996368Y-102102830D01*
X144014781Y-102113866D01*
X144032024Y-102126654D01*
X144047930Y-102141070D01*
X144062346Y-102156976D01*
X144075134Y-102174219D01*
X144086170Y-102192632D01*
X144095349Y-102212038D01*
X144102581Y-102232250D01*
X144107797Y-102253074D01*
X144110947Y-102274309D01*
X144112000Y-102295750D01*
X144112000Y-102733250D01*
X144110947Y-102754691D01*
X144107797Y-102775926D01*
X144102581Y-102796750D01*
X144095349Y-102816962D01*
X144086170Y-102836368D01*
X144075134Y-102854781D01*
X144062346Y-102872024D01*
X144047930Y-102887930D01*
X144032024Y-102902346D01*
X144014781Y-102915134D01*
X143996368Y-102926170D01*
X143976962Y-102935349D01*
X143956750Y-102942581D01*
X143935926Y-102947797D01*
X143914691Y-102950947D01*
X143893250Y-102952000D01*
X143380750Y-102952000D01*
X143359309Y-102950947D01*
X143338074Y-102947797D01*
X143317250Y-102942581D01*
X143297038Y-102935349D01*
X143277632Y-102926170D01*
X143259219Y-102915134D01*
X143241976Y-102902346D01*
X143226070Y-102887930D01*
X143211654Y-102872024D01*
X143198866Y-102854781D01*
X143187830Y-102836368D01*
X143178651Y-102816962D01*
X143171419Y-102796750D01*
X143166203Y-102775926D01*
X143163053Y-102754691D01*
X143162000Y-102733250D01*
X143162000Y-102295750D01*
X143163053Y-102274309D01*
X143166203Y-102253074D01*
X143171419Y-102232250D01*
X143178651Y-102212038D01*
X143187830Y-102192632D01*
X143198866Y-102174219D01*
X143211654Y-102156976D01*
X143226070Y-102141070D01*
X143241976Y-102126654D01*
X143259219Y-102113866D01*
X143277632Y-102102830D01*
X143297038Y-102093651D01*
X143317250Y-102086419D01*
X143338074Y-102081203D01*
X143359309Y-102078053D01*
X143380750Y-102077000D01*
X143893250Y-102077000D01*
X143914691Y-102078053D01*
G37*
G36*
X145819691Y-96566053D02*
G01*
X145840926Y-96569203D01*
X145861750Y-96574419D01*
X145881962Y-96581651D01*
X145901368Y-96590830D01*
X145919781Y-96601866D01*
X145937024Y-96614654D01*
X145952930Y-96629070D01*
X145967346Y-96644976D01*
X145980134Y-96662219D01*
X145991170Y-96680632D01*
X146000349Y-96700038D01*
X146007581Y-96720250D01*
X146012797Y-96741074D01*
X146015947Y-96762309D01*
X146017000Y-96783750D01*
X146017000Y-97221250D01*
X146015947Y-97242691D01*
X146012797Y-97263926D01*
X146007581Y-97284750D01*
X146000349Y-97304962D01*
X145991170Y-97324368D01*
X145980134Y-97342781D01*
X145967346Y-97360024D01*
X145952930Y-97375930D01*
X145937024Y-97390346D01*
X145919781Y-97403134D01*
X145901368Y-97414170D01*
X145881962Y-97423349D01*
X145861750Y-97430581D01*
X145840926Y-97435797D01*
X145819691Y-97438947D01*
X145798250Y-97440000D01*
X145285750Y-97440000D01*
X145264309Y-97438947D01*
X145243074Y-97435797D01*
X145222250Y-97430581D01*
X145202038Y-97423349D01*
X145182632Y-97414170D01*
X145164219Y-97403134D01*
X145146976Y-97390346D01*
X145131070Y-97375930D01*
X145116654Y-97360024D01*
X145103866Y-97342781D01*
X145092830Y-97324368D01*
X145083651Y-97304962D01*
X145076419Y-97284750D01*
X145071203Y-97263926D01*
X145068053Y-97242691D01*
X145067000Y-97221250D01*
X145067000Y-96783750D01*
X145068053Y-96762309D01*
X145071203Y-96741074D01*
X145076419Y-96720250D01*
X145083651Y-96700038D01*
X145092830Y-96680632D01*
X145103866Y-96662219D01*
X145116654Y-96644976D01*
X145131070Y-96629070D01*
X145146976Y-96614654D01*
X145164219Y-96601866D01*
X145182632Y-96590830D01*
X145202038Y-96581651D01*
X145222250Y-96574419D01*
X145243074Y-96569203D01*
X145264309Y-96566053D01*
X145285750Y-96565000D01*
X145798250Y-96565000D01*
X145819691Y-96566053D01*
G37*
G36*
X145819691Y-98141053D02*
G01*
X145840926Y-98144203D01*
X145861750Y-98149419D01*
X145881962Y-98156651D01*
X145901368Y-98165830D01*
X145919781Y-98176866D01*
X145937024Y-98189654D01*
X145952930Y-98204070D01*
X145967346Y-98219976D01*
X145980134Y-98237219D01*
X145991170Y-98255632D01*
X146000349Y-98275038D01*
X146007581Y-98295250D01*
X146012797Y-98316074D01*
X146015947Y-98337309D01*
X146017000Y-98358750D01*
X146017000Y-98796250D01*
X146015947Y-98817691D01*
X146012797Y-98838926D01*
X146007581Y-98859750D01*
X146000349Y-98879962D01*
X145991170Y-98899368D01*
X145980134Y-98917781D01*
X145967346Y-98935024D01*
X145952930Y-98950930D01*
X145937024Y-98965346D01*
X145919781Y-98978134D01*
X145901368Y-98989170D01*
X145881962Y-98998349D01*
X145861750Y-99005581D01*
X145840926Y-99010797D01*
X145819691Y-99013947D01*
X145798250Y-99015000D01*
X145285750Y-99015000D01*
X145264309Y-99013947D01*
X145243074Y-99010797D01*
X145222250Y-99005581D01*
X145202038Y-98998349D01*
X145182632Y-98989170D01*
X145164219Y-98978134D01*
X145146976Y-98965346D01*
X145131070Y-98950930D01*
X145116654Y-98935024D01*
X145103866Y-98917781D01*
X145092830Y-98899368D01*
X145083651Y-98879962D01*
X145076419Y-98859750D01*
X145071203Y-98838926D01*
X145068053Y-98817691D01*
X145067000Y-98796250D01*
X145067000Y-98358750D01*
X145068053Y-98337309D01*
X145071203Y-98316074D01*
X145076419Y-98295250D01*
X145083651Y-98275038D01*
X145092830Y-98255632D01*
X145103866Y-98237219D01*
X145116654Y-98219976D01*
X145131070Y-98204070D01*
X145146976Y-98189654D01*
X145164219Y-98176866D01*
X145182632Y-98165830D01*
X145202038Y-98156651D01*
X145222250Y-98149419D01*
X145243074Y-98144203D01*
X145264309Y-98141053D01*
X145285750Y-98140000D01*
X145798250Y-98140000D01*
X145819691Y-98141053D01*
G37*
G36*
X149236691Y-98586053D02*
G01*
X149257926Y-98589203D01*
X149278750Y-98594419D01*
X149298962Y-98601651D01*
X149318368Y-98610830D01*
X149336781Y-98621866D01*
X149354024Y-98634654D01*
X149369930Y-98649070D01*
X149384346Y-98664976D01*
X149397134Y-98682219D01*
X149408170Y-98700632D01*
X149417349Y-98720038D01*
X149424581Y-98740250D01*
X149429797Y-98761074D01*
X149432947Y-98782309D01*
X149434000Y-98803750D01*
X149434000Y-99316250D01*
X149432947Y-99337691D01*
X149429797Y-99358926D01*
X149424581Y-99379750D01*
X149417349Y-99399962D01*
X149408170Y-99419368D01*
X149397134Y-99437781D01*
X149384346Y-99455024D01*
X149369930Y-99470930D01*
X149354024Y-99485346D01*
X149336781Y-99498134D01*
X149318368Y-99509170D01*
X149298962Y-99518349D01*
X149278750Y-99525581D01*
X149257926Y-99530797D01*
X149236691Y-99533947D01*
X149215250Y-99535000D01*
X148777750Y-99535000D01*
X148756309Y-99533947D01*
X148735074Y-99530797D01*
X148714250Y-99525581D01*
X148694038Y-99518349D01*
X148674632Y-99509170D01*
X148656219Y-99498134D01*
X148638976Y-99485346D01*
X148623070Y-99470930D01*
X148608654Y-99455024D01*
X148595866Y-99437781D01*
X148584830Y-99419368D01*
X148575651Y-99399962D01*
X148568419Y-99379750D01*
X148563203Y-99358926D01*
X148560053Y-99337691D01*
X148559000Y-99316250D01*
X148559000Y-98803750D01*
X148560053Y-98782309D01*
X148563203Y-98761074D01*
X148568419Y-98740250D01*
X148575651Y-98720038D01*
X148584830Y-98700632D01*
X148595866Y-98682219D01*
X148608654Y-98664976D01*
X148623070Y-98649070D01*
X148638976Y-98634654D01*
X148656219Y-98621866D01*
X148674632Y-98610830D01*
X148694038Y-98601651D01*
X148714250Y-98594419D01*
X148735074Y-98589203D01*
X148756309Y-98586053D01*
X148777750Y-98585000D01*
X149215250Y-98585000D01*
X149236691Y-98586053D01*
G37*
G36*
X147661691Y-98586053D02*
G01*
X147682926Y-98589203D01*
X147703750Y-98594419D01*
X147723962Y-98601651D01*
X147743368Y-98610830D01*
X147761781Y-98621866D01*
X147779024Y-98634654D01*
X147794930Y-98649070D01*
X147809346Y-98664976D01*
X147822134Y-98682219D01*
X147833170Y-98700632D01*
X147842349Y-98720038D01*
X147849581Y-98740250D01*
X147854797Y-98761074D01*
X147857947Y-98782309D01*
X147859000Y-98803750D01*
X147859000Y-99316250D01*
X147857947Y-99337691D01*
X147854797Y-99358926D01*
X147849581Y-99379750D01*
X147842349Y-99399962D01*
X147833170Y-99419368D01*
X147822134Y-99437781D01*
X147809346Y-99455024D01*
X147794930Y-99470930D01*
X147779024Y-99485346D01*
X147761781Y-99498134D01*
X147743368Y-99509170D01*
X147723962Y-99518349D01*
X147703750Y-99525581D01*
X147682926Y-99530797D01*
X147661691Y-99533947D01*
X147640250Y-99535000D01*
X147202750Y-99535000D01*
X147181309Y-99533947D01*
X147160074Y-99530797D01*
X147139250Y-99525581D01*
X147119038Y-99518349D01*
X147099632Y-99509170D01*
X147081219Y-99498134D01*
X147063976Y-99485346D01*
X147048070Y-99470930D01*
X147033654Y-99455024D01*
X147020866Y-99437781D01*
X147009830Y-99419368D01*
X147000651Y-99399962D01*
X146993419Y-99379750D01*
X146988203Y-99358926D01*
X146985053Y-99337691D01*
X146984000Y-99316250D01*
X146984000Y-98803750D01*
X146985053Y-98782309D01*
X146988203Y-98761074D01*
X146993419Y-98740250D01*
X147000651Y-98720038D01*
X147009830Y-98700632D01*
X147020866Y-98682219D01*
X147033654Y-98664976D01*
X147048070Y-98649070D01*
X147063976Y-98634654D01*
X147081219Y-98621866D01*
X147099632Y-98610830D01*
X147119038Y-98601651D01*
X147139250Y-98594419D01*
X147160074Y-98589203D01*
X147181309Y-98586053D01*
X147202750Y-98585000D01*
X147640250Y-98585000D01*
X147661691Y-98586053D01*
G37*
M02*
