G04 #@! TF.GenerationSoftware,KiCad,Pcbnew,5.1.5+dfsg1-2+b1*
G04 #@! TF.CreationDate,2020-04-04T21:00:22+09:00*
G04 #@! TF.ProjectId,dbmbyhd,64626d62-7968-4642-9e6b-696361645f70,rev?*
G04 #@! TF.SameCoordinates,Original*
G04 #@! TF.FileFunction,Soldermask,Bot*
G04 #@! TF.FilePolarity,Negative*
%FSLAX46Y46*%
G04 Gerber Fmt 4.6, Leading zero omitted, Abs format (unit mm)*
G04 Created by KiCad (PCBNEW 5.1.5+dfsg1-2+b1) date 2020-04-04 21:00:22*
%MOMM*%
%LPD*%
G04 APERTURE LIST*
%ADD10C,0.020000*%
G04 APERTURE END LIST*
D10*
G36*
X146693812Y-105686624D02*
G01*
X146693815Y-105686625D01*
X146693814Y-105686625D01*
X146857781Y-105754542D01*
X147005354Y-105853147D01*
X147130853Y-105978646D01*
X147229458Y-106126219D01*
X147284831Y-106259902D01*
X147297376Y-106290188D01*
X147332000Y-106464259D01*
X147332000Y-106641741D01*
X147297376Y-106815812D01*
X147297375Y-106815814D01*
X147229458Y-106979781D01*
X147130853Y-107127354D01*
X147005354Y-107252853D01*
X146857781Y-107351458D01*
X146724098Y-107406831D01*
X146693812Y-107419376D01*
X146519741Y-107454000D01*
X146342259Y-107454000D01*
X146168188Y-107419376D01*
X146137902Y-107406831D01*
X146004219Y-107351458D01*
X145856646Y-107252853D01*
X145731147Y-107127354D01*
X145632542Y-106979781D01*
X145564625Y-106815814D01*
X145564624Y-106815812D01*
X145530000Y-106641741D01*
X145530000Y-106464259D01*
X145564624Y-106290188D01*
X145577169Y-106259902D01*
X145632542Y-106126219D01*
X145731147Y-105978646D01*
X145856646Y-105853147D01*
X146004219Y-105754542D01*
X146168186Y-105686625D01*
X146168185Y-105686625D01*
X146168188Y-105686624D01*
X146342259Y-105652000D01*
X146519741Y-105652000D01*
X146693812Y-105686624D01*
G37*
G36*
X144153812Y-105686624D02*
G01*
X144153815Y-105686625D01*
X144153814Y-105686625D01*
X144317781Y-105754542D01*
X144465354Y-105853147D01*
X144590853Y-105978646D01*
X144689458Y-106126219D01*
X144744831Y-106259902D01*
X144757376Y-106290188D01*
X144792000Y-106464259D01*
X144792000Y-106641741D01*
X144757376Y-106815812D01*
X144757375Y-106815814D01*
X144689458Y-106979781D01*
X144590853Y-107127354D01*
X144465354Y-107252853D01*
X144317781Y-107351458D01*
X144184098Y-107406831D01*
X144153812Y-107419376D01*
X143979741Y-107454000D01*
X143802259Y-107454000D01*
X143628188Y-107419376D01*
X143597902Y-107406831D01*
X143464219Y-107351458D01*
X143316646Y-107252853D01*
X143191147Y-107127354D01*
X143092542Y-106979781D01*
X143024625Y-106815814D01*
X143024624Y-106815812D01*
X142990000Y-106641741D01*
X142990000Y-106464259D01*
X143024624Y-106290188D01*
X143037169Y-106259902D01*
X143092542Y-106126219D01*
X143191147Y-105978646D01*
X143316646Y-105853147D01*
X143464219Y-105754542D01*
X143628186Y-105686625D01*
X143628185Y-105686625D01*
X143628188Y-105686624D01*
X143802259Y-105652000D01*
X143979741Y-105652000D01*
X144153812Y-105686624D01*
G37*
G36*
X142252000Y-107454000D02*
G01*
X140450000Y-107454000D01*
X140450000Y-105652000D01*
X142252000Y-105652000D01*
X142252000Y-107454000D01*
G37*
G36*
X149233812Y-105686624D02*
G01*
X149233815Y-105686625D01*
X149233814Y-105686625D01*
X149397781Y-105754542D01*
X149545354Y-105853147D01*
X149670853Y-105978646D01*
X149769458Y-106126219D01*
X149824831Y-106259902D01*
X149837376Y-106290188D01*
X149872000Y-106464259D01*
X149872000Y-106641741D01*
X149837376Y-106815812D01*
X149837375Y-106815814D01*
X149769458Y-106979781D01*
X149670853Y-107127354D01*
X149545354Y-107252853D01*
X149397781Y-107351458D01*
X149264098Y-107406831D01*
X149233812Y-107419376D01*
X149059741Y-107454000D01*
X148882259Y-107454000D01*
X148708188Y-107419376D01*
X148677902Y-107406831D01*
X148544219Y-107351458D01*
X148396646Y-107252853D01*
X148271147Y-107127354D01*
X148172542Y-106979781D01*
X148104625Y-106815814D01*
X148104624Y-106815812D01*
X148070000Y-106641741D01*
X148070000Y-106464259D01*
X148104624Y-106290188D01*
X148117169Y-106259902D01*
X148172542Y-106126219D01*
X148271147Y-105978646D01*
X148396646Y-105853147D01*
X148544219Y-105754542D01*
X148708186Y-105686625D01*
X148708185Y-105686625D01*
X148708188Y-105686624D01*
X148882259Y-105652000D01*
X149059741Y-105652000D01*
X149233812Y-105686624D01*
G37*
G36*
X141871000Y-102501000D02*
G01*
X140069000Y-102501000D01*
X140069000Y-100699000D01*
X141871000Y-100699000D01*
X141871000Y-102501000D01*
G37*
G36*
X155841000Y-99961000D02*
G01*
X154039000Y-99961000D01*
X154039000Y-98159000D01*
X155841000Y-98159000D01*
X155841000Y-99961000D01*
G37*
G36*
X141232812Y-98193624D02*
G01*
X141232815Y-98193625D01*
X141232814Y-98193625D01*
X141396781Y-98261542D01*
X141544354Y-98360147D01*
X141669853Y-98485646D01*
X141768458Y-98633219D01*
X141823831Y-98766902D01*
X141836376Y-98797188D01*
X141871000Y-98971259D01*
X141871000Y-99148741D01*
X141836376Y-99322812D01*
X141836375Y-99322814D01*
X141768458Y-99486781D01*
X141669853Y-99634354D01*
X141544354Y-99759853D01*
X141396781Y-99858458D01*
X141263098Y-99913831D01*
X141232812Y-99926376D01*
X141058741Y-99961000D01*
X140881259Y-99961000D01*
X140707188Y-99926376D01*
X140676902Y-99913831D01*
X140543219Y-99858458D01*
X140395646Y-99759853D01*
X140270147Y-99634354D01*
X140171542Y-99486781D01*
X140103625Y-99322814D01*
X140103624Y-99322812D01*
X140069000Y-99148741D01*
X140069000Y-98971259D01*
X140103624Y-98797188D01*
X140116169Y-98766902D01*
X140171542Y-98633219D01*
X140270147Y-98485646D01*
X140395646Y-98360147D01*
X140543219Y-98261542D01*
X140707186Y-98193625D01*
X140707185Y-98193625D01*
X140707188Y-98193624D01*
X140881259Y-98159000D01*
X141058741Y-98159000D01*
X141232812Y-98193624D01*
G37*
G36*
X149618000Y-97421000D02*
G01*
X147816000Y-97421000D01*
X147816000Y-95619000D01*
X149618000Y-95619000D01*
X149618000Y-97421000D01*
G37*
G36*
X151519812Y-95653624D02*
G01*
X151519815Y-95653625D01*
X151519814Y-95653625D01*
X151683781Y-95721542D01*
X151831354Y-95820147D01*
X151956853Y-95945646D01*
X152055458Y-96093219D01*
X152110831Y-96226902D01*
X152123376Y-96257188D01*
X152158000Y-96431259D01*
X152158000Y-96608741D01*
X152123376Y-96782812D01*
X152123375Y-96782814D01*
X152055458Y-96946781D01*
X151956853Y-97094354D01*
X151831354Y-97219853D01*
X151683781Y-97318458D01*
X151550098Y-97373831D01*
X151519812Y-97386376D01*
X151345741Y-97421000D01*
X151168259Y-97421000D01*
X150994188Y-97386376D01*
X150963902Y-97373831D01*
X150830219Y-97318458D01*
X150682646Y-97219853D01*
X150557147Y-97094354D01*
X150458542Y-96946781D01*
X150390625Y-96782814D01*
X150390624Y-96782812D01*
X150356000Y-96608741D01*
X150356000Y-96431259D01*
X150390624Y-96257188D01*
X150403169Y-96226902D01*
X150458542Y-96093219D01*
X150557147Y-95945646D01*
X150682646Y-95820147D01*
X150830219Y-95721542D01*
X150994186Y-95653625D01*
X150994185Y-95653625D01*
X150994188Y-95653624D01*
X151168259Y-95619000D01*
X151345741Y-95619000D01*
X151519812Y-95653624D01*
G37*
G36*
X155202812Y-95653624D02*
G01*
X155202815Y-95653625D01*
X155202814Y-95653625D01*
X155366781Y-95721542D01*
X155514354Y-95820147D01*
X155639853Y-95945646D01*
X155738458Y-96093219D01*
X155793831Y-96226902D01*
X155806376Y-96257188D01*
X155841000Y-96431259D01*
X155841000Y-96608741D01*
X155806376Y-96782812D01*
X155806375Y-96782814D01*
X155738458Y-96946781D01*
X155639853Y-97094354D01*
X155514354Y-97219853D01*
X155366781Y-97318458D01*
X155233098Y-97373831D01*
X155202812Y-97386376D01*
X155028741Y-97421000D01*
X154851259Y-97421000D01*
X154677188Y-97386376D01*
X154646902Y-97373831D01*
X154513219Y-97318458D01*
X154365646Y-97219853D01*
X154240147Y-97094354D01*
X154141542Y-96946781D01*
X154073625Y-96782814D01*
X154073624Y-96782812D01*
X154039000Y-96608741D01*
X154039000Y-96431259D01*
X154073624Y-96257188D01*
X154086169Y-96226902D01*
X154141542Y-96093219D01*
X154240147Y-95945646D01*
X154365646Y-95820147D01*
X154513219Y-95721542D01*
X154677186Y-95653625D01*
X154677185Y-95653625D01*
X154677188Y-95653624D01*
X154851259Y-95619000D01*
X155028741Y-95619000D01*
X155202812Y-95653624D01*
G37*
G36*
X141232812Y-95653624D02*
G01*
X141232815Y-95653625D01*
X141232814Y-95653625D01*
X141396781Y-95721542D01*
X141544354Y-95820147D01*
X141669853Y-95945646D01*
X141768458Y-96093219D01*
X141823831Y-96226902D01*
X141836376Y-96257188D01*
X141871000Y-96431259D01*
X141871000Y-96608741D01*
X141836376Y-96782812D01*
X141836375Y-96782814D01*
X141768458Y-96946781D01*
X141669853Y-97094354D01*
X141544354Y-97219853D01*
X141396781Y-97318458D01*
X141263098Y-97373831D01*
X141232812Y-97386376D01*
X141058741Y-97421000D01*
X140881259Y-97421000D01*
X140707188Y-97386376D01*
X140676902Y-97373831D01*
X140543219Y-97318458D01*
X140395646Y-97219853D01*
X140270147Y-97094354D01*
X140171542Y-96946781D01*
X140103625Y-96782814D01*
X140103624Y-96782812D01*
X140069000Y-96608741D01*
X140069000Y-96431259D01*
X140103624Y-96257188D01*
X140116169Y-96226902D01*
X140171542Y-96093219D01*
X140270147Y-95945646D01*
X140395646Y-95820147D01*
X140543219Y-95721542D01*
X140707186Y-95653625D01*
X140707185Y-95653625D01*
X140707188Y-95653624D01*
X140881259Y-95619000D01*
X141058741Y-95619000D01*
X141232812Y-95653624D01*
G37*
M02*
