M48
; DRILL file {KiCad 5.1.5+dfsg1-2} date Sun 08 Mar 2020 13:50:45 JST
; FORMAT={-:-/ absolute / inch / decimal}
; #@! TF.CreationDate,2020-03-08T13:50:45+09:00
; #@! TF.GenerationSoftware,Kicad,Pcbnew,5.1.5+dfsg1-2
FMAT,2
INCH
T1C0.0118
T2C0.0157
T3C0.0394
%
G90
G05
T1
X5.7733Y-4.0133
X5.7733Y-4.0467
X5.8067Y-4.0133
X5.8067Y-4.0467
T2
X5.565Y-4.105
X5.7275Y-3.93
X5.8425Y-4.1425
X5.8625Y-3.9575
X5.8724Y-4.1099
X5.895Y-4.075
T3
X5.565Y-4.195
X5.665Y-4.195
X5.765Y-4.195
X5.865Y-4.195
X6.1Y-3.8
X6.1Y-3.9
X5.855Y-3.8
X5.955Y-3.8
X5.55Y-3.8
X5.55Y-3.9
X5.55Y-4.0
T0
M30
